/* XPM */
static char *result[] = {
/* columns rows colors chars-per-pixel */
"50 50 193 2 ",
"   c #490B00",
".  c #6C0012",
"X  c #4A2F21",
"o  c #5C342C",
"O  c #57372F",
"+  c #6D332D",
"@  c #66362F",
"#  c #75342F",
"$  c #653B33",
"%  c #6B3B35",
"&  c #6F3B35",
"*  c #7B3B35",
"=  c #763E39",
"-  c #773935",
";  c #5A4138",
":  c #78423D",
">  c #7D4841",
",  c #920007",
"<  c #8D011B",
"1  c #A30006",
"2  c #9B192B",
"3  c #911935",
"4  c #A3172B",
"5  c #BE122B",
"6  c #B70B39",
"7  c #822E29",
"8  c #872C37",
"9  c #9D2432",
"0  c #952D34",
"q  c #992B32",
"w  c #8D3435",
"e  c #873838",
"r  c #8A3B38",
"t  c #923335",
"y  c #9C3439",
"u  c #943A3B",
"i  c #B22727",
"p  c #A32633",
"a  c #AA2635",
"s  c #A62933",
"d  c #AD2935",
"f  c #B22B37",
"g  c #B42B39",
"h  c #BC2E3A",
"j  c #BD2735",
"k  c #AB3533",
"l  c #A6383C",
"z  c #B53C31",
"x  c #B7353A",
"c  c #CD002B",
"v  c #D5192C",
"b  c #C90E32",
"n  c #C31B3B",
"m  c #D61A3D",
"M  c #D72B3C",
"N  c #C4323C",
"B  c #CA343E",
"V  c #D1363F",
"C  c #E23431",
"Z  c #85423D",
"A  c #BE4133",
"S  c #D5473F",
"D  c #873F40",
"F  c #B43541",
"G  c #FE0145",
"H  c #FC1746",
"J  c #C83A45",
"K  c #D13640",
"L  c #DA3743",
"P  c #D43942",
"I  c #C43F50",
"U  c #EA2844",
"Y  c #F72646",
"T  c #E43A46",
"R  c #E93C47",
"E  c #EB3847",
"W  c #E43153",
"Q  c #864C4C",
"!  c #9C4947",
"~  c #964947",
"^  c #A14A49",
"/  c #AC4B4B",
"(  c #B3454B",
")  c #BA4B4C",
"_  c #B54047",
"`  c #BC4F50",
"'  c #A55452",
"]  c #BD5455",
"[  c #B75859",
"{  c #CC464B",
"}  c #D8454C",
"|  c #CB4E53",
" . c #C64754",
".. c #DC4E54",
"X. c #C25B5B",
"o. c #CD5A5D",
"O. c #C35657",
"+. c #DB5454",
"@. c #D5545B",
"#. c #DF585E",
"$. c #D75155",
"%. c #E3434A",
"&. c #ED4859",
"*. c #FF4554",
"=. c #F14856",
"-. c #E25159",
";. c #E7575B",
":. c #F15A5D",
">. c #F95254",
",. c #CE6C59",
"<. c #C55F61",
"1. c #D95764",
"2. c #EF5B62",
"3. c #E15D65",
"4. c #F65363",
"5. c #CA6766",
"6. c #DC696B",
"7. c #D76364",
"8. c #D57C67",
"9. c #DE7A73",
"0. c #E3646B",
"q. c #E8676B",
"w. c #FC656C",
"e. c #F1696D",
"r. c #F86769",
"t. c #EC7D6A",
"y. c #F9726E",
"u. c #EA6875",
"i. c #FF6F79",
"p. c #F86C72",
"a. c #ED7D7A",
"s. c #FC797C",
"d. c #F97274",
"f. c #C08767",
"g. c #D4886C",
"h. c #D9887A",
"j. c #E68779",
"k. c #F68478",
"l. c #EB947D",
"z. c #EA997C",
"x. c #E3927D",
"c. c #FF7C83",
"v. c #F47E81",
"b. c #DA8082",
"n. c #D39385",
"m. c #E08181",
"M. c #F68A88",
"N. c #EF9682",
"B. c #EB9D86",
"V. c #FF9A8C",
"C. c #F59984",
"Z. c #D6B59B",
"A. c #EDA58F",
"S. c #E6A98B",
"D. c #F1A88B",
"F. c #E5A391",
"G. c #F9A79B",
"H. c #E8B791",
"J. c #F4B198",
"K. c #F4AAA3",
"L. c #F7A7A8",
"P. c #F6A0A5",
"I. c #E4B3A6",
"U. c #FABBA8",
"Y. c #F8B3B3",
"T. c #F6C49B",
"R. c #EBC9A0",
"E. c #F5C8A7",
"W. c #E6D0AF",
"Q. c #E9C8B8",
"!. c #F2CFB6",
"~. c #F5C0BB",
"^. c #F6C4B6",
"/. c #F2D2BA",
"(. c #EDD6CB",
"). c #FED4CA",
"_. c #E2D2D2",
"`. c #FEDCD4",
"'. c #FFD5D9",
"]. c #F8E3C9",
"[. c #EDE5D7",
"{. c #F7E9DA",
"}. c #FEE3D5",
"|. c #E2E3E5",
" X c #FDEDEB",
".X c #FFEEE6",
"XX c #F4F1EE",
"oX c #FAF2EC",
"OX c #FFF9EF",
"+X c #EDF6FA",
"@X c #FEFEFE",
"#X c #F8F7F2",
"$X c None",
/* pixels */
"$X$X$X$X$X$X$X$X$X$X$X$X$X$X$X$X$X$X$X$X$X$X$X$X$X$X$X$X$X$X$X$X$X$X$X$X$X$X$X$X$X$X$X$X$X$X$X$X$X$X",
"$X$X$X$X$X$X$X$X$X$X$X$X$X$X$X$X$X$X$X$X$X$X$X$X$X$X$X$X$X$X$X$X$X$X$X$X$X$X$X$X$X$X$X$X$X$X$X$X$X$X",
"$X$X$X$X$X$X$X$X$X$X$X$X$X$X$X$X$X$X$X$X$X$X$X$X$X$X$X$X$X$X$X$X$X$X$X$X$X$X$X$X$X$X$X$X$X$X$X$X$X$X",
"$X$X$X$X$X$X$X$X$X$X$X$X$X$X$X$X$X$X$X$X$X$X$X$X$X$X$X$X$X$X$X$X$X$X$X$X$X$X$X$X$X$X$X$X$X$X$X$X$X$X",
"$X$X$X$X$X$X$X$X$X$X$X$X$X$X$X$X$X$X$X$X$X$X$X$X$X$X$X$X$X$X$X$X$X$X$X$X$X$X$X$X$X$X$X$X$X$X$X$X$X$X",
"$X$X$X$X$X$X$X$X$X$X$X$X$X$X$X$X$X$X$X$X$X$X$X$X$X$X$X$X$X$X$X$X$X$X$X$X$X$X$X$X$X$X$X$X$X$X$X$X$X$X",
"$X$X$X$X$X$X$X$X$X$X$X$X$X$X$X$X$X$X$X$X$X$X$X$X$X$X$X$X$X$X$X$X$X$X$X$X$X$X$X$X$X$X$X$X$X$X$X$X$X$X",
"$X$X$X$X$X$X$X$X$X$X$X$X$X$X$X$X$X$X$X$X$XG G $X$X$X$X$X$X$X$X$X$X$X$X$X$X$X$X$X$X$X$X$X$X$X$X$X$X$X",
"$X$X$X$X$X$X$X$X$X$X$X$X$X$X$XN $X$X$X$X$X$X$X$X$X$X$X$X$X$X$X$X$X$X$X$X$X$X$X$X$X$X$X$X$X$X$X$X$X$X",
"$X$X$X$X$X$X$X$X$X$X$X$X$X$X$X$X$X$X$X$Xk z $X$X$X$X$X$X$X$X$X$X$X$X$X$X$X$X$X$X$X$X$X$X$X$X$X$X$X$X",
"$X$X$X$X$X$X$X$X$X$X$X$X$X$X$X$Xp s $X$XN s $X$X$X$X$X$X$X$X$X$X$X$X$X$X$X$X$X$X$X$X$X$X$X$X$X$X$X$X",
"$X$X$X$X$X$XY $X$X$X$X$X$X$X$X$X9 $X$X$Xp $X$X$X$X$XY $X$X$XK L $X$X$X$X$X$X$X$X$X$X$X$X$X$X$X$X$X$X",
"$X$X$X$X$X$XE $X$X$X$X$X$X$X$X$X$X$Xs a $X$X$X$X$X$X$X$X$X$X$X9 s $X$X$X$X$X$X$X$X$X$X$X$X$X$X$X$X$X",
"$X$X$X$X$X$X$X$X$X$X$X$X$X$XG G $X$X$X$X$X$X$X$X$X$X$X$X$X$Xp $X$X$X$Xg $X$X$X$X$X$X$X$X$X$X$X$X$X$X",
"$X$X$X$X$X$X$X$X$X$X$X$Xp $X$X$X$X9 $X$XN $X$X$Xt $X$X$X$X@ N p $X$X$Xm $X$X$X$X$X$X$X$X$X$X$X$X$X$X",
"$X$X$X$X$X$X$X$X$X$X$X$Xg s $X$Xp f R *.x 4 -.( y w t $Xw O.~ - $X$XG G H $X$X$X$X$X$X$X$X$X$X$X$X$X",
"$X$X$X$X$X$X$X$X$X$X$X$Xp p $X$X$X$X$Xh a p $X$X0 $X$X= * ! $X$X$X$X$X$X$Xn $X$X$X$X$X$X$X$X$X$X$X$X",
"$X$X$X$X$X$X$X$X$X$X$Xp p s $X$X[ $X$X$X: O $X$X$X$X$X$X) ] + $X$X$X$X$X$X$Xf $X$X$X$X$X$X$X$X$X$X$X",
"$X$X$X$X$X$X$Xh P $XT 9 $X$X= w.X.$ $X$X$ [ :.e $X$X$X$X{ w.` $X$X$X$X$X$Xp a $X$XH $X$X$X$X$X$X$X$X",
"$X$X$X$X$X$X$XR U K L $X$X$Xr $.# $X$Xu ' ;.# ; $Xo > = ! 7.e.! $X$X$X$X$Xg $X$X$XU $X$X$X$X$X$X$X$X",
"$X$X$X$X$X$X$X$Xp a $X$X9 $X% @ $X$Xx ; q J 0.1.$X5.l $ ~ | X u $X$X$X$X$Xs $X$X$X$X$X$X$X$X$X$X$X$X",
"$X$X$X$X$X$X$X$Xp $X$X9 j I l $Xx *.=.5 9.s.y.C.y.< & : N h } $X$Xy $X$X$X9 $X$X$X$X$X$X$X$X$X$X$X$X",
"$X$X$X$X$X$X$X$X$X$X$X2 3.s.M.Q v l.A.p.D.W. XOX~.Z.5.. ..s.V.g.>.+.y F 9 N h $X$X$X$X$X$X$X$X$X$X$X",
"$X$X$X$X$X$X$X$X$X$X$X$Xp./.}.X.o.J.A.N.P.^.oX@X@X@X`.,.U 8.B.`.L.%.u.e., P J $X$X$X$Xk $X$X$X$X$X$X",
"$X$X$X$X$X$X$X$X$X$X$X$X:._./.+.b.^.y.p.Y.{.#X@X@X@X@X).C  .t.@X X7.6.V.@.] J $X$X$X$XA $X$X$X$X$X$X",
"$X$X$X$X$X$X$X$X$X$X$X$X8 f.j.6 -.D.M.=.z.#X@X@X@X@X@XXXm.   .U.!.v.2.c.<.f R T $X$X$X$X$X$X$X$X$X$X",
"$X$X$X$X$X$X$X$X$X$X$X$X$X$X( < 0.w.h.{ Y.@X@X@X@X@X@X+XM.i $Xq.d.6.e.6.] k d $X$X$X$X$X$X$X$X$X$X$X",
"$X$X$X$X$X$X$X$X$X$X$X$X$X$X$Xg $Xo.4.2.(.+XoXoX X@X@X@XG.1 $X^ ) @.s.5.@.$X$X$X$XA $X$X$X$X$X$X$X$X",
"$X$X$X$XB $X$X$X$X$X$X$X$X$X$X$X$X8 j.N.K.I./.+X@X@X@X'.M $X= % $ $./ ' w $X$X$X$Xz T $X$X$X$X$X$X$X",
"$X$X$X$X$X$X$X$X$Xs s $Xp a $X$X$X% a.J.R.H.B.F.XX@X{.z.$X| Z = $X& $X$ $X$X$X$Xp d $X$X$X$X$X$X$X$X",
"$X$X$X$X$X$X$X$X$X$X9 $X$Xg $X$X$X$ B W F.t.u.N.W.W.(.B.-.) & = $X$X$X$X$X$X$X$Xd $X$X$X$X$X$X$X$X$X",
"$X$X$X$X$XK $X$X$XK h $X$X$X$Xe $Xx h.8.c b L.[.|.XX[.k.K u $X$X$Xp p $X$X$X$X$Xs $X$X$Xp $X$X$X$X$X",
"$X$X$X$X$XB $X$X$X$XT N $X$Xw _ + $XE.].n.:.z.@X@XOXT.M.F $X$X$X$Xs s a $X$X$X$X$X$X$X$X$X$X$X$X$X$X",
"$X$X$X$X$X$X$X$X$X$Xh g $Xs p $Xu $Xg.].).S.E. X`.}.x.3 $X$X$X$X$X$Xp s $X$X$X$X$X$X$X$X$X$X$X$X$X$X",
"$X$X$X$X$X$X$X$X$X$Xp g $X$Xp q - r $X4 ( r n $XB $X$Xe l 0 $X$X$X$X$X$X$X$X$X$X$X$X$X$X$X$X$X$X$X$X",
"$X$X$X$XG $X$X$X$X$X$X9 $X$X$X$Xq.c.} $X$X$X$X$X$X$X$Xt $X$Xs s $X$X$X$X$X$X$X$X$X$X$X$X$X$X$X$X$X$X",
"$X$X$X$X$X$X$X$X$X$X$X$X$X$X$X$X$X0.q.$ $X$X$X$X$X$X$X$X$Xs R g $X$X$X$X$X$X$X$X$X$X$X$X$X$X$X$X$X$X",
"$X$X$X$X$X$X$X$X$X$X$Xd n $X$X$X$X$X$X$Xt g p $X$X$Xs $X$Xp p $X$X$X$X$X$X$X$X$X$X$X$X$X$X$X$X$X$X$X",
"$X$X$X$X$X$X$X$X$X$X$Xp $X$X$XL $X$X$X$X$Xp p 2 $Xj g p $X$X$X$XK R $X$X$X$X$XB $X$X$X$X$X$X$X$X$X$X",
"$X$X$X$X$X$X$X$X$X$X$X$X$X$X$X$X$X$X$X$X9 h V i.V.:.M f $Xs s $X$X$X$X$X$X$X$X$X$X$X$X$X$X$X$X$X$X$X",
"$X$X$X$X$X$X$X$X$X$X$X$X$X$X$X$X$X$Xp p $X$X$X$X1.( f K f p $X$X$X$X$X$X$X$X$X$X$X$X$X$X$X$X$X$X$X$X",
"$X$X$X$X$X$X$X$X$X$X$X$X$X$X$X$X$X$X$X$X$X$X$X$X$X$X$Xd K p $Xs s $X$X$X$X$X$X$X$X$X$X$X$X$X$X$X$X$X",
"$X$X$X$X$X$X$X$X$X$X$X$X$X$X$X$X$X$X$X$Xs p $X$X$X$X$Xs d $X$X$X$X$X$X$X$X$X$X$X$X$X$X$X$X$X$X$X$X$X",
"$X$X$X$X$X$X$X$X$X$X$X$X$X$X$X$X$X$X$X$X$X$X$X$X$X$X$X$X$X$X$X$X$X$X$X$X$X$X$X$X$X$X$X$X$X$X$X$X$X$X",
"$X$X$X$X$X$X$X$X$X$X$X$X$X$X$X$X$X$X$X$X$X$X$X$X$X$X$X$X$X$X$X$X$X$X$X$X$X$X$X$X$X$X$X$X$X$X$X$X$X$X",
"$X$X$X$X$X$X$X$X$X$X$X$X$X$X$X$X$X$X$XN $X$X$X$X$X$X$X$X$X$X$X$X$X$X$X$X$X$X$X$X$X$X$X$X$X$X$X$X$X$X",
"$X$X$X$X$X$X$X$X$X$X$X$X$X$X$X$X$X$X$X$X$X$X$X$X$X$X$X$X$X$X$X$X$X$X$X$X$X$X$X$X$X$X$X$X$X$X$X$X$X$X",
"$X$X$X$X$X$X$X$X$X$X$X$X$X$X$X$X$X$X$X$X$X$X$X$X$X$X$X$X$X$X$X$X$X$X$X$X$X$X$X$X$X$X$X$X$X$X$X$X$X$X",
"$X$X$X$X$X$X$X$X$X$X$X$X$X$X$X$X$X$X$X$X$X$X$X$X$X$X$X$X$X$X$X$X$X$X$X$X$X$X$X$X$X$X$X$X$X$X$X$X$X$X",
"$X$X$X$X$X$X$X$X$X$X$X$X$X$X$X$X$X$X$X$X$X$X$X$X$X$X$X$X$X$X$X$X$X$X$X$X$X$X$X$X$X$X$X$X$X$X$X$X$X$X"
};
