/* XPM */
static char *result[] = {
/* columns rows colors chars-per-pixel */
"50 50 199 2 ",
"   c #3D342F",
".  c #43211E",
"X  c #631C26",
"o  c #772028",
"O  c #65332D",
"+  c #643B36",
"@  c #6B3D37",
"#  c #6D3F39",
"$  c #6B3937",
"%  c #743E39",
"&  c #7A3D39",
"*  c #743833",
"=  c #5D433A",
"-  c #67413C",
";  c #73413A",
":  c #79423C",
">  c #A90019",
",  c #971B2B",
"<  c #9A1C2C",
"1  c #B30B2B",
"2  c #B01D2E",
"3  c #AC1336",
"4  c #BA1A33",
"5  c #84272B",
"6  c #98272D",
"7  c #862C38",
"8  c #9D2432",
"9  c #942E35",
"0  c #8B3536",
"q  c #8B3B37",
"w  c #883A38",
"e  c #933136",
"r  c #963B3A",
"t  c #98353A",
"y  c #AB222E",
"u  c #A32633",
"i  c #AC2636",
"p  c #A32935",
"a  c #AC2936",
"s  c #B32535",
"d  c #B12A36",
"f  c #B52B39",
"g  c #BB2C39",
"h  c #B82734",
"j  c #AA333C",
"k  c #A6383B",
"l  c #BA3A3D",
"z  c #C40000",
"x  c #D40000",
"c  c #C3370D",
"v  c #D8183B",
"b  c #C52D3B",
"n  c #D62D3F",
"m  c #C3323C",
"M  c #CB333E",
"N  c #D1353F",
"B  c #83443F",
"V  c #BA452F",
"C  c #A0532A",
"Z  c #A2403F",
"A  c #B6623E",
"S  c #C54236",
"D  c #943F45",
"F  c #AE3C4A",
"G  c #B93944",
"H  c #E90044",
"J  c #FE0145",
"K  c #E51542",
"L  c #FB1244",
"P  c #CC3F4B",
"I  c #C83440",
"U  c #D13441",
"Y  c #DB3643",
"T  c #DE3844",
"R  c #EB2946",
"E  c #FF2E4B",
"W  c #E33945",
"Q  c #EC3C4A",
"!  c #E03444",
"~  c #F63F4B",
"^  c #844641",
"/  c #8A4944",
"(  c #994949",
")  c #8E504C",
"_  c #9C5453",
"`  c #A34243",
"'  c #AA4C4F",
"]  c #A44946",
"[  c #B54648",
"{  c #B84E55",
"}  c #AB5854",
"|  c #BE5C5F",
" . c #B55858",
".. c #9D6254",
"X. c #A56B5C",
"o. c #C84648",
"O. c #D1494E",
"+. c #DE4A4D",
"@. c #C3544D",
"#. c #DC4452",
"$. c #D94B55",
"%. c #DB5359",
"&. c #C7565A",
"*. c #ED434B",
"=. c #E34D58",
"-. c #FB4651",
";. c #EC575D",
":. c #E4555A",
">. c #F25A5E",
",. c #C5635D",
"<. c #D95860",
"1. c #F04E63",
"2. c #EA5863",
"3. c #F45265",
"4. c #F45967",
"5. c #C56162",
"6. c #D66769",
"7. c #D66E70",
"8. c #D77466",
"9. c #EE646D",
"0. c #ED696E",
"q. c #E96366",
"w. c #F16469",
"e. c #FC656C",
"r. c #F26B6D",
"t. c #F16167",
"y. c #E9776C",
"u. c #F0786B",
"i. c #EA6A71",
"p. c #F46F74",
"a. c #FE6C75",
"s. c #FE6770",
"d. c #EC7172",
"f. c #EE7A75",
"g. c #F47479",
"h. c #F77B7C",
"j. c #F47677",
"k. c #B79678",
"l. c #CD967A",
"z. c #EC8472",
"x. c #ED8A77",
"c. c #E58B7B",
"v. c #E9857C",
"b. c #F18D7B",
"n. c #F5867A",
"m. c #EB9677",
"M. c #F5937D",
"N. c #FC8284",
"B. c #F48A84",
"V. c #FD8B84",
"C. c #ED9585",
"Z. c #F19384",
"A. c #F39A83",
"S. c #FB9789",
"D. c #FB9997",
"F. c #EBA282",
"G. c #EFA38F",
"H. c #EBAB8A",
"J. c #F2A38E",
"K. c #F0AB8F",
"L. c #EEAB95",
"P. c #E3A89A",
"I. c #F2AA93",
"U. c #F7A294",
"Y. c #F5BE9A",
"T. c #EAB98A",
"R. c #F1A8A8",
"E. c #E2BEAE",
"W. c #F3BEAC",
"Q. c #F7BDB3",
"!. c #EEC89E",
"~. c #ECC6A9",
"^. c #F1C5A8",
"/. c #EDCAB1",
"(. c #F2C5B3",
"). c #F7C7BC",
"_. c #EDD4B7",
"`. c #F0D6BF",
"'. c #F6CCC5",
"]. c #EAD9C4",
"[. c #F4D9C6",
"{. c #F7D5C8",
"}. c #FBD7CE",
"|. c #F3DBCD",
" X c #FCDFD2",
".X c #FFDCDC",
"XX c #F8D5D1",
"oX c #EFE5C5",
"OX c #F4EBC1",
"+X c #F6ECDA",
"@X c #E0E5E3",
"#X c #FBE4E1",
"$X c #FEEEEE",
"%X c #FAF2EA",
"&X c #E9EFF5",
"*X c #FCFBF5",
"=X c #FFFEFE",
"-X c #F6F7F5",
";X c None",
/* pixels */
";X;X;X;X;X;X;X;X;X;X;X;X;X;X;X;X;X;X;X;X;X;X;X;X;X;X;X;X;X;X;X;X;X;X;X;X;X;X;X;X;X;X;X;X;X;X;X;X;X;X",
";X;X;X;X;X;X;X;X;X;X;X;X;X;X;X;X;X;X;X;X;X;X;X;X;X;X;X;X;X;X;X;X;X;X;X;X;X;X;X;X;X;X;X;X;X;X;X;X;X;X",
";X;X;X;X;X;X;X;X;X;X;X;X;X;X;X;X;X;X;X;X;X;X;X;X;X;X;X;X;X;X;X;X;X;X;X;X;X;X;X;X;X;X;X;X;X;X;X;X;X;X",
";X;X;X;X;X;X;X;X;X;X;X;X;X;X;X;X;X;X;X;X;X;X;X;X;X;X;X;X;X;X;X;X;X;X;X;X;X;X;X;X;X;X;X;X;X;X;X;X;X;X",
";X;X;X;X;X;X;X;X;X;X;X;X;X;X;X;X;X;X;X;X;X;X;X;X;X;X;X;X;X;X;X;X;X;X;X;X;X;X;X;X;X;X;X;X;X;X;X;X;X;X",
";X;X;X;X;X;X;X;X;X;X;X;X;X;X;X;X;X;X;X;X;X;X;X;X;X;X;X;X;X;X;X;X;X;XJ J ;X;X;X;X;X;X;X;X;X;X;X;X;X;X",
";X;X;X;X;X;X;X;X;X;X;X;X;X;X;X;X;X;X;X;X;X;X;X;X;X;X;X;X;X;X;X;X;X;X;X;X;X;X;X;X;X;X;X;X;X;X;X;X;X;X",
";X;X;X;X;X;X;X;X;X;X;X;X;X;X;X;X;X;X;X;X;X;X;X;X;X;X;X;X;X;X;X;X;X;X;X;X;X;X;X;X;X;X;X;X;X;X;X;X;X;X",
";X;X;X;X;X;X;X;X;X;X;X;X;X;X;X;X;X;X;X;Xu u ;X;X;X;X;X;X;X;X;X;X;X;X;X;X;X;X;X;X;X;X;X;X;X;X;X;X;X;X",
";X;X;X;X;X;X;X;X;X;X;X;X;X;X;X;Xi u ;X;X;X;X;X;X;X;X;X;X;X;X;X;X;X;X;X;X;X;X;X;X;X;X;X;X;X;X;X;X;X;X",
";X;X;X;X;X;X;X;X;X;X;X;X;X;X;X;X;X;X;X;X;Xa Q M p ;X;X;X;X;X;X;X;X;X;X;X;X;X;X;X;X;X;X;X;X;X;X;X;X;X",
";X;X;X;X;X;X;X;X;X;X;X;X;X;X;X;X;X;Xu ;X;X;X;X;X;X;X;X;X;X;X;X;X;X;X;X;X;X;Xf ;X;X;X;X;X;X;X;X;X;X;X",
";X;X;X;X;X;X;X;X;X;X;Xu ;X;X;X;X;X;Xd Y u ;X;X;X;X;X;X;X;X;Xu a ;X;X;X;X;X;X;X;X;X;X;X;X;X;X;X;X;X;X",
";X;X;X;X;X;X;X;X;X;Xu ;X;X;X;X;X;Xd U f ;X;X;X;X;X;X;X;X;X;Xf Q u ;X;X;X;X;X;X;X;X;X;X;X;X;X;X;X;X;X",
";X;X;X;X;X;X;X;X;X;X;X;X;X;X;X;Xh Q f o ;X;X;X;X;Xu W T ;X;X;Xu u u ;X;X;X;X;X;X;X;X;X;X;XU ;X;X;X;X",
";X;X;X;X;X;X;X;X;X;X;X;X;X;X2 =.-.! o.G b ;X;X;X;X;X;Xd a ;X;X;X;Xu T a ;X;X;X;X;X;X;X;X;X;X;X;X;X;X",
";X;X;X;X;X;X;Xu ;X;X;X;X;X2.>.e.;X,.D.V.;X;X;X;X;X;X;X;X;X;X;X;X;X;XU U ;X;X;X;X;X;X;X;X;X;X;X;X;X;X",
";X;X;X;X;X;X;Xf ;X;X;X;X, 2.] ;Xv '.}.l.} O { 5.& X ' ;X;X;X& & ;X8 6 < ;X;X;X;X;X;X;XS ;X;X;X;X;X;X",
";X;X;X;XM ;X;X;X;Xu ;X;Xd O.;XC +X.X>.2.g.g.%.P d.c.v.F ;X;X;X( O.y #.;X;X;X;Xi f ;X;XV ;X;X;X;X;X;X",
";X;X;X;X;X;X;X;X;Xa ;Xa m ;X;X.X*XP.{ d.h.7.q.x.L.L.I.D.x.v h.( w.$.t 7.;X;X;Xd ~ ;X;X;X;X;X;X;X;X;X",
";X;X;X;X;X;X;X;X;X;X;Xu p ;X;XXX}.z 4 C.h.i.H.W.E.P.m.L.Z.s.N.2.q.g.[ - j u ;X;Xu ;X;X;X;X;X;X;X;X;X",
";X;X;X;X;X;X;X;X;X;X;X;X;X;X$.z.F.d.v.b.p.'.].+X(.1.y.x.B.3.x.I.4.G  .| %.s p ;X;X;X;X;X;X;X;X;X;X;X",
";X;X;X;X;X;X;X;X;X;XU d ;X; r 3 9.Z.J.K d.G.+X|.=XR.~._.F.f.S.G.V.X.. &.m 8 ;X;X;X;X;X;X;X;X;X;X;X;X",
";X;X;X;X;X;X;X;X;Xi -.g ;X@ Z G 2.=.R w.b.Q.@X].=X*X%X%X).r.f.I.x.O.% 5 s a ;X;X;X;Xu ;X;X;X;X;X;X;X",
";X;X;X;X;X;X;X;X;X;Xf ;X;X/ # ^ _ P 0.] z.(.-X=X=X=X=X=X).H k.OX}.` = ;XY W ;X;X;X;Xf ;X;X;X;X;X;X;X",
";X;X;X;X;X;X;X;X;X;X;X;X;X;X;X: t.O.  @.(.|.=X=X=X=X*X_.m.f.T.*X$Xc t ;Xh -.;X;X;X;X;X;X;X;X;X;X;X;X",
";X;X;X;X;X;X;X;X;X;X;X0 e ;X;X: o.[ M p.^.-X&X=X=X=X=X*X^.B.K.oX/.A.r.;X;Xa ;X;X;X;X8 ;X;X;X;X;X;X;X",
";X;X;X;X;X;X;X;X;X;X;X0 e ;X;X+ B 6 :.N.A.+X=X=X=X=X=X=X#X>.j.!.n.B.a.;X;X;X;X;X;Xa Q ;X;X;X;X;X;X;X",
";X;X;X;X;X;X;X;X;X;X;Xt 0 ;X;XB ) ] B.b.`._.{.=X=X=X=X=X{.G.c.+.Q N.r.;X;X9 s ;X;Xd M ;X;X;X;X;X;X;X",
";X;X;X;X;X;X;X;Xu u ;X;X;X;XM ! ' ;Xg.h.K.A.D.|.=X=X=X=X{.C.;X;X&.n.;X+ + j M ;X;X;Xu a ;X;X;X;X;X;X",
";X;X;X;X;X;X;Xu u < ;X:.;X;X1 u.a.i  .*.0.#.x H.!.|.=X+XM.[ O ; [ ;X;XB / O.i ;X;X8 U m ;X;X;X;X;X;X",
";X;X;X;X;X;X;Xu p ;X;Xe.> ;X;X8.Y.Z.D q q l [ ..o.} D.A j ;X;X^ # ;X;X+ ;XO.< ;X;X;X8 ;X;X;X;X;X;X;X",
";X;X;X;X;X;X;X;X;X;X;XM u ;X;X;Xz.S.7 ;X- ;X; * + k > ;X= ;X% ;X;X;X;X;X;XW ;X;X;X;X;X;X;X;X;X;X;X;X",
";X;X;X;X;X;X;X;X;X;X;X;Xu ;X;X;Xe %.7.;X;X;X;X; ;X;X;X;X;X;X;X;X;X;X;X;Xa ;X;X;X;X;X;X;X;X;X;X;X;X;X",
";X;X;X;X;X;X;Xu u ;X;X;X;X;X;X;X' :.* ;X;X% B : % ;X;X;X;X;X;X;X;X;X;X;X;Xu p ;X;X;X;X;X;X;X;X;X;X;X",
";X;X;X;X;X;X;X;X;X;X;X;X;X;X;X;X- <.[ ;X;X;X% % % ;Xr q ;X;X;X;X;X;X;X;X;XU ;X;X;X;X;X;X;X;X;X;X;X;X",
";X;X;X;X;X;X;Xp i ;X;X;X;XM u ;X;X;X;X;X;X;X;X;X;X* ;.:.5.;X;X;X;Xp ;X;X;X;X;X;X;X;XJ ;X;X;X;X;X;X;X",
";X;X;X;X;X;X;X;XK E l ;X;X;X;Xm ;X;X;X;X;Xw 9 ;X;X;Xk ] ;X;X;X;Xu ;X;X;X;X;X;X;X;X;X;X;X;X;X;X;X;X;X",
";X;X;X;X;X;X;X;X;X;X;X;X;X;X;XM m ;X;X;X;X;X0 e ;X;X;X;X;X;X;X;X;X;Xa a ;X;X;X;X;X;X;X;X;X;X;X;X;X;X",
";X;X;X;X;X;X;X;X;X;X;X;X;X;X;XM ;X;X;X;X;Xu u ;X;X;X;Xu u ;X;X;Xu u M M ;X;X;X;X;X;X;X;X;X;X;X;X;X;X",
";X;X;X;X;X;X;X;X;X;X;X;X;X;X;X;X;X;X;X;X;Xp p p ;X;X;Xu p ;X;X;Xu ;X;X;X;X;X;X;X;X;X;X;X;X;X;X;X;X;X",
";X;X;X;X;X;X;X;X;X;X;X;X;X;X;X;X;X;X;X;X;X;X;X;X;X;X;X;X;X;X;X;X;X;Xu ;X;X;X;X;X;X;X;X;X;X;X;X;X;X;X",
";X;X;X;X;X;X;X;X;X;X;X;X;X;X;X;X;X;X;X;X;X;X;X;X;X;X;X;X;X;X;X;X;X;X;X;X;X;X;X;X;X;X;X;X;X;X;X;X;X;X",
";X;X;X;X;X;X;X;X;X;X;X;X;X;X;X;X;X;X;X;X;X;X;X;X;X;X;X;X;X;X;XL J ;X;X;X;X;X;X;X;X;X;X;X;X;X;X;X;X;X",
";X;X;X;X;X;X;X;X;X;X;X;X;X;X;X;X;X;X;X;X;X;X;X;X;XM ;X;X;XM U ;X;X;X;X;X;X;X;X;X;X;X;X;X;X;X;X;X;X;X",
";X;X;X;X;X;X;X;X;X;X;X;X;X;X;X;X;X;X;X;XU ;X;X;X;X;X;X;X;X;X;X;X;X;X;X;X;X;X;X;X;X;X;X;X;X;X;X;X;X;X",
";X;X;X;X;X;X;X;X;X;X;X;X;X;X;X;X;X;X;X;X;X;X;X;X;XJ v ;X;X;X;X;X;X;X;X;X;X;X;X;X;X;X;X;X;X;X;X;X;X;X",
";X;X;X;X;X;X;X;X;X;X;X;X;X;X;X;X;X;X;X;X;X;X;X;XJ J ;X;X;X;X;X;X;X;X;X;X;X;X;X;X;X;X;X;X;X;X;X;X;X;X",
";X;X;X;X;X;X;X;X;X;X;X;X;X;X;X;X;X;X;X;X;X;X;X;X;X;X;X;X;X;X;X;X;X;X;X;X;X;X;X;X;X;X;X;X;X;X;X;X;X;X",
";X;X;X;X;X;X;X;X;X;X;X;X;X;X;X;X;X;X;X;X;X;X;X;X;X;X;X;X;X;X;X;X;X;X;X;X;X;X;X;X;X;X;X;X;X;X;X;X;X;X"
};
