/* XPM */
static char *result[] = {
/* columns rows colors chars-per-pixel */
"50 50 211 2 ",
"   c #1E392F",
".  c #3A372E",
"X  c #4B3329",
"o  c #5F3029",
"O  c #4A3A31",
"+  c #5D3C34",
"@  c #583B33",
"#  c #6B2528",
"$  c #7E252A",
"%  c #73362E",
"&  c #7B2A33",
"*  c #6D3933",
"=  c #643F39",
"-  c #6A3D37",
";  c #733B36",
":  c #733D38",
">  c #7C3E39",
",  c #763634",
"<  c #6F423B",
"1  c #75413A",
"2  c #7E443E",
"3  c #784743",
"4  c #840018",
"5  c #A60003",
"6  c #BF001E",
"7  c #880D24",
"8  c #951B26",
"9  c #A20028",
"0  c #B60B30",
"q  c #80352C",
"w  c #892C35",
"e  c #9E2532",
"r  c #962C32",
"t  c #9D2833",
"y  c #942836",
"u  c #833434",
"i  c #813B35",
"p  c #8C3D3A",
"a  c #843B38",
"s  c #923337",
"d  c #9C3434",
"f  c #973B3B",
"g  c #9D3A3B",
"h  c #A0252D",
"j  c #A8372F",
"k  c #A32633",
"l  c #A42935",
"z  c #AB2936",
"x  c #AD2635",
"c  c #B22C37",
"v  c #B42B3A",
"b  c #BA2D3A",
"n  c #B22535",
"m  c #AC3431",
"M  c #AD3831",
"N  c #AD343B",
"B  c #A93B3E",
"V  c #A53A3C",
"C  c #B23C31",
"Z  c #B23334",
"A  c #C40000",
"S  c #C0001B",
"D  c #C30034",
"F  c #C80030",
"G  c #D8193D",
"H  c #C20729",
"J  c #E61D36",
"K  c #C32F3B",
"L  c #C52537",
"P  c #D22639",
"I  c #C4313C",
"U  c #C9323E",
"Y  c #D0353F",
"T  c #E9293F",
"R  c #E32E3F",
"E  c #E5323D",
"W  c #82423D",
"Q  c #B7402F",
"!  c #AC3E42",
"~  c #A13D46",
"^  c #BB3B41",
"/  c #CB2743",
"(  c #C63D43",
")  c #CB3642",
"_  c #D33540",
"`  c #DA3442",
"'  c #DD3A46",
"]  c #D13847",
"[  c #EA2E48",
"{  c #FF2D4C",
"}  c #F32945",
"|  c #E53643",
" . c #E43B46",
".. c #EC3D4A",
"X. c #EA3345",
"o. c #F73F4C",
"O. c #874843",
"+. c #8A4642",
"@. c #9E4B4A",
"#. c #944946",
"$. c #AE4544",
"%. c #AB4C4C",
"&. c #A3484A",
"*. c #B94243",
"=. c #B34C4E",
"-. c #BB494C",
";. c #B0444F",
":. c #A3504E",
">. c #B45254",
",. c #AA5554",
"<. c #BA6755",
"1. c #CD464B",
"2. c #C7454A",
"3. c #D1444C",
"4. c #D74345",
"5. c #CC4F53",
"6. c #CE4757",
"7. c #DB4C53",
"8. c #DA4956",
"9. c #CA5255",
"0. c #CD525A",
"q. c #CA5B5D",
"w. c #C3585B",
"e. c #D45459",
"r. c #DC545A",
"t. c #D3595C",
"y. c #DD5257",
"u. c #F9454F",
"i. c #E64B53",
"p. c #F94B56",
"a. c #EA555E",
"s. c #E5565D",
"d. c #F7555D",
"f. c #CA605E",
"g. c #F2635F",
"h. c #DE5D67",
"j. c #EC5C64",
"k. c #FC5C65",
"l. c #F55C67",
"z. c #C96C63",
"x. c #D36164",
"c. c #D86767",
"v. c #D87E6F",
"b. c #D97E78",
"n. c #EA656A",
"m. c #F6666A",
"M. c #F5786D",
"N. c #E46E74",
"B. c #E96879",
"V. c #F66D73",
"C. c #FD6C73",
"Z. c #FF6475",
"A. c #EA7C75",
"S. c #FD787C",
"D. c #F47476",
"F. c #D88372",
"G. c #E9926B",
"H. c #EA8478",
"J. c #F48D7D",
"K. c #F78679",
"L. c #EC917B",
"P. c #F9937E",
"I. c #FD7C81",
"U. c #D39986",
"Y. c #EA8B86",
"T. c #F98883",
"R. c #F19185",
"E. c #F39588",
"W. c #FE948D",
"Q. c #F3998A",
"!. c #FB9A8C",
"~. c #FE9186",
"^. c #ED8D90",
"/. c #E99590",
"(. c #F29890",
"). c #F4A38B",
"_. c #E9B28F",
"`. c #EFAD90",
"'. c #FDA793",
"]. c #F4A999",
"[. c #E9B492",
"{. c #EBB897",
"}. c #F4BB9A",
"|. c #F3B79F",
" X c #E9A98A",
".X c #EBBDA9",
"XX c #EFBFA6",
"oX c #F1BBA2",
"OX c #EAB7BF",
"+X c #F4A8AA",
"@X c #E5C39D",
"#X c #ECCAA4",
"$X c #EDC5A0",
"%X c #F2CCA8",
"&X c #EAD1A7",
"*X c #ECCDBA",
"=X c #F2C5B4",
"-X c #F7C8B9",
";X c #F0DEBF",
":X c #EAD7BA",
">X c #F5CEC2",
",X c #F6D3C8",
"<X c #EFE0C4",
"1X c #F3E2CA",
"2X c #F5F0DF",
"3X c #F5E5D3",
"4X c #F9EBE5",
"5X c #FCF3EC",
"6X c #FBFCF4",
"7X c #FFFEFE",
"8X c None",
/* pixels */
"8X8X8X8X8X8X8X8X8X8X8X8X8X8X8X8X8X8X8X8X8X8X8X8X8X8X8X8X8X8X8X8X8X8X8X8X8X8X8X8X8X8X8X8X8X8X8X8X8X8X",
"8X8X8X8X8X8X8X8X8X8X8X8X8X8X8X8X8X8X8X8X8X8X8X8X8X8X8X8X8X8X8X8X8X8X8X8X8X8X8X8X8X8X8X8X8X8X8X8X8X8X",
"8X8X8X8X8X8X8X8X8X8X8X8X8X8X8X8X8X8X8X8X8X8X8X8X8X8X8X8X8X8X8X8X8X8X8X8X8X8X8X8X8X8X8X8X8X8X8X8X8X8X",
"8X8X8X8X8X8X8X8X8X8X8X8X8X8X8X8X8X8X8X8X8X8X8X8X8X8X8X8X8X8X8X8X8X8X8X8X8X8X8X8X8X8X8X8X8X8X8X8X8X8X",
"8X8X8X8X8X8X8X8X8X8X8X8X8X8X8X8X8X8X8X8X8X8X8X8X8X8X8X8X8X8X8X8X8X8X8X8X8X8X8X8X8X8X8X8X8X8X8X8X8X8X",
"8X8X8X8X8X8X8X8X8X8X8X8X8X8X8X8X8X8X8X8X8X8X8X8X8X8X8X8X8X8X8X8X8X8X8X8X8X8X8X8X8X8X8X8X8X8X8X8X8X8X",
"8X8X8X8X8X8X8X8X8X8X8X8X8X8X8X8X8X8Xk k 8X8X8X8X8X8X8X8X8X8X8X8XU U 8X8X8X8X8X8X8X8X8X8X8X8X8X8X8X8X",
"8X8X8X8X8X8X8X8X8X8X8X8X8X8X8X8X8X8X8X8X8X8X8X8X8X8X8X8X8X8X8X8XI I 8X8X8X8X8X8X8X8X8X8X8X8X8X8X8X8X",
"8X8X8X8X8X8X8X8X8X8X8X8X8X8X8X8X8XI 8X8X8X8X8X8X8X8X8X8X8X8X8X8X8X8X8X8X8X8X8X8X8X8X8X8X8X8X8X8X8X8X",
"8X8X8X8X8X8X8X8X8X8X8X8X8X8X8X8X8X8X8X8X8X8X8X8X8X8X8X8X8X8X8X8X8X8X8X8X8X8X_ 8X8X8X8X8X8X8X8X8X8X8X",
"8X8X8X8X8X8X8X8X8X8X8X8X8X8X8X8X8X8X8X8X8X8X8Xk k 8X8X8X8X8Xk U U 8X8X8X8X8X8X8X8X8X8X8X8X8X8X8X8X8X",
"8X8X8X8X8X8X8X8X8X8X8X8X8X8X8X8X..` 8X8X8X8X8Xk k 8X8X8X8X8X8Xb b 8X8X8X8X8X8X8X8X8X8X8X8X8X8X8X8X8X",
"8X8X8X8X8X8X8X8Xk 8X8X8X8X8XG 8Xl 8X8Xk c k 8X8X8X8X8X8X8X8Xf s 8X8X8X8X8X8X8X8X8X8X8X8X8X8X8X8X8X8X",
"8X8X8X8X8X8X8X8X8Xk 8X8X8X8X8X8X8X8X8X8X8X8X8X8X8X8X8X8X8X8X8Xs a 8X8X8X8X8X8X8X8X8X8X8X8X8X8X8X8X8X",
"8X8X8X8X8X8X8X8X8X8X8Xe 8X8X8X8X8Xk b z l 8X8X8X8X8X8X: : 1 8X8X8X8X8X8X8X8X8X8X8X8XC 8X8X8X8X8X8X8X",
"8X8X8X8X8XU I 8X8X8Xz u.z 8X8X8X8X8Xk z z k k 8X8X8X8X: +.W ( K b 8X8X8X8X8X8X8X8X8XM 8X8X8X8X8X8X8X",
"8X8X8X8X8XU 8X8X8X8Xz b k 8X8X8X8X8X8X8X8 P g 8X8X8X8X8X8X= V _  .8X8X8X8X8X8X8X8X8X8X8X8X8X8X8X8X8X",
"8X8X8X8X8X8X8X8X8X8X8X8X8X8X8X; * 8X8Xq.x.l.2.O 8X8X8X8X8X: 8X8Xr 8X8X8X8X8X8X8X8Xb 8X8X8X8X8X8X8X8X",
"8X8X8XQ 8X8X8X8X8X8X8X8X8X: > +.#.* u.C.I.R.6.&.~ 8X8X8X> O.W 8X8X; 8X8X8X8X8X8X8Xl 8X8X8X8X8X8X8X8X",
"8X8X8X8X8X8X8XM 8X8X8X8X,.:.o W h.W c.] `._.E.!.).N.V.8X8X1 : f.+.2 2 8X8X8X8X8X8X8X8X8X8X8X8X8X8X8X",
"8X8X8X8X8X8X8XM 8X8X8X8Xj.^ 0.r.r.@ 8XR W.#X[.L._.$XC.z.8X8X8XB >.D.:.8Xz 8X8X8X8X8X8X8X8X8X8X8X8X8X",
"8X8X8X8X8X8X8X` I p.8X2.' %.9.@.Q < @.8.p.XX5X4XoX2X=X[.P.y 8XO $.l.C.8X6 8X8X8X8X{ 8X8X8X8X8X8X8X8X",
"8X8X8X8X8X8X8Xu.C.k.| 4 i.>.V.$.+.% a.R.,X6X7X7X7X7X4X:XE.h.$.8X@ -.7.6.j.! 8X..t 8XZ m 8X8X8X8X8X8X",
"8X8X8X8X8X8X8X' 2.l.4.7 3.D.n.8X. q.} .X7X7X7X7X7X7X4X6X=XM.p.8X8X< H S.W.e.8Xj.8X8Xj j 8X8X8X8X8X8X",
"8X8X8X8X8X8X8X8X8Xn K 8Xt 7.1 8X3 d ^.7X7X7X7X7X7X7X7X7X7X(.R.F.8X8XF M.].8.8Xa.8X8X8X8X8X8X8X8X8X8X",
"8X8X8X8X8X8X8X8X8X8X8Xk V N w 8Xx.5 Y.7X7X7X7X7X7X7X7X3X>X[.{.L.9 8X8XP C.e.8X( z k o.8X8X8X8X8X8X8X",
"8X8X8X8X8X8X8X8X8X8X8Xk n U x # ~.H.T (.6X7X7X7X7X7X7X<XG.E.{.R.` 8X8XN L b 8Xb k k I 8X8X8X8X8X8X8X",
"8X8X8X8X8X8X8X8X8X8X8Xk 8Xt u / !.{.D.m.1X7X7X7X7X;X-X}.>X X&XQ.v 8X8X8Xk l : s 8Xk 8X8X8X8X8X8X8X8X",
"8X8X8X8X8X8X8X8X8X8X8X8X8X8Xi s T.%XS.%.H.OX.X-X5X/.A 7.B.Q.T.e.; 8X8X8X8Xb W ; k 8X8X8X8X8X8X8X8X8X",
"8X8X8X8X8X8X8X8X8X8X8X8X8X8Xs.q.>.F.S.1.E 1.J 2.<./ W f.A.T.;.X 8X8X8X8X8X8X: 8Xz 8X8X8X8X8X8X8X8X8X",
"8X8X8X8X8X{ 8X8X8Xk 8X8X8X8Xn.C.N.8Xr.d.S.r.d p l 8XJ.#X%Xm.# 8X8X1 : 8X8X8X8X8X8X8X8X8X8XY 8X8X8X8X",
"8X8X8X8X8X8X8X8X8Xk 8X8X8Xr l.S.C., #.=.7.i.@.1.X.P.{.$X).*.8X8X8X#.: 8X8X8X8X8X8X8X8X8X8XU 8X8X8X8X",
"8X8X8X8X8X8X8X8X8X8X8X8X8X8Xh 9.;.> 9.9.>.+ 8XX.U M.H.e.0 p = 8X: : 8X8X8X8X8X8X8X8X8X8X8X8X8X8X8X8X",
"8X8X8X8X8X8X8X8X8X8X8Xk 8X8X8Xw 8X8X*.n.y.i 8X8X8X[ k.N.F.&.+ 8X8X8X8X8X8Xl b 8X8X8X8X8X8X8X8X8X8X8X",
"8X8X8X8X8X8X8X8X8X8X8X) k 8Xr V ` k 8X  , W r.W c.'.Q.#XQ.] 8X8X8X8X8X8X8XI  .8X8X8X8X8X8X8X8X8X8X8X",
"8X8X8X8X8X8X8X8X8Xk 8X8X8X8X8XF '.P.5 > =.>.7.y c.OXoXE.D N 8X8X8X8X8X8X8X8X8X8X8X8X8X8X8X8X8X8X8X8X",
"8X8X8X8X8Xk k 8X8X8Xk 8X8X8X8Xw H.A.L 8Xn.k.+X*X}.K.Z.w.8X8X8X8X8X8X8X8X8X8X8X8X8X8X8X8X8X8X8X8X8X8X",
"8X8X8X8X8X8X8X8X8X8X8X8X8Xl 8X8X8X, 3 1 8X0.F.'.E.U.& 8Xl v 8X8X8X8X8X8X8X8X8X8X8X8X8X8X8X8X8X8X8X8X",
"8X8X8X8X8X8X8X8X8X8X8X8X8Xz ' 8X8X8X8X8X8X8X8X6 8X8X8X8X8X8X8X8XG 8X8X8X8X8X8X8X8X8X8X8X8X8X8X8X8X8X",
"8X8X8X8X8X8X8X8X8X8X8X8X8X8X_ U e 8X8X8X8X8X8X8X8X8X8X8X8X8X8X8Xk 8X8X8X8X8X8X8X8X8X8X8X8X8X8X8X8X8X",
"8X8X8X8X8X8X8X8X8X8X8X8X8X8X8X8Xk 8X8X8X8X8X8X8X8X8X8X8X8X8X8X8Xk 8X8X8X8X8X8X8X8X8X8X8X8X8X8X8X8X8X",
"8X8X8X8X8X8X8X8X8X8X8X8X8X8X8X8X8X8X8X8XU _ 8X8X8X8X8X8X8X8X8X8X8X8X8XM 8X8X8X8X8X8X8X8X8X8X8X8X8X8X",
"8X8X8X8X8X8X8X8X8X8X8X8X8X8X8X8X8X8X8X8X8X8X8X8X8X8Xb _ 8X8X8X8X8X8X8X8X8X8X8X8X8X8X8X8X8X8X8X8X8X8X",
"8X8X8X8X8X8X8X8X8X8X8X8X8X8X8X8X8X8X8Xk k 8XI ' i.k 8X8X8X8X8X8X8X8X8X8X8X8X8X8X8X8X8X8X8X8X8X8X8X8X",
"8X8X8X8X8X8X8X8X8X8X8X8X8X8X8X8X8X8X8X8X8X8X8X4.5.8X8XI I 8X8X8X8XX.8X8X8X8X8X8X8X8X8X8X8X8X8X8X8X8X",
"8X8X8X8X8X8X8X8X8X8X8X8X8X8X8X8X8X8X8X8X8X8X8X8X8X8X8X8XU _ 8X8X8X} 8X8X8X8X8X8X8X8X8X8X8X8X8X8X8X8X",
"8X8X8X8X8X8X8X8X8X8X8X8X8X8X8X8X8X8X8X8X8X8X8X8X8X8X8X8X8X_ 8X8X8X8X8X8X8X8X8X8X8X8X8X8X8X8X8X8X8X8X",
"8X8X8X8X8X8X8X8X8X8X8X8X8X8X8X8X8X8X8X8X8X8X8X8X8X8X8X8X8X8X8X8X8X8X8X8X8X8X8X8X8X8X8X8X8X8X8X8X8X8X",
"8X8X8X8X8X8X8X8X8X8X8X8X8X8X8X8X8X8X8X8X8X8X8X8X8X8X8X8X8X8X8X8X8X8X8X8X8X8X8X8X8X8X8X8X8X8X8X8X8X8X",
"8X8X8X8X8X8X8X8X8X8X8X8X8X8X8X8X8X8X8X8X8X8X8X8X8X8X8X8X8X8X8X8X8X8X8X8X8X8X8X8X8X8X8X8X8X8X8X8X8X8X"
};
