/* XPM */
static char *result[] = {
/* columns rows colors chars-per-pixel */
"50 50 198 2 ",
"   c #342B20",
".  c #2B3221",
"X  c #5C141B",
"o  c #6D2315",
"O  c #4B342C",
"+  c #56362D",
"@  c #5A3E36",
"#  c #772F29",
"$  c #7A3329",
"%  c #673E37",
"&  c #6B3A34",
"*  c #6D3E39",
"=  c #693631",
"-  c #733D38",
";  c #783D38",
":  c #74413B",
">  c #7D433C",
",  c #90041F",
"<  c #B0000C",
"1  c #A30018",
"2  c #991627",
"3  c #A71D2D",
"4  c #912C2B",
"5  c #9C2431",
"6  c #972431",
"7  c #843836",
"8  c #873D3B",
"9  c #8C3D3B",
"0  c #873334",
"q  c #933D3A",
"w  c #9A3A39",
"e  c #983636",
"r  c #9A382B",
"t  c #A3202E",
"y  c #A32633",
"u  c #AA2634",
"i  c #A42A35",
"p  c #AB2936",
"a  c #B62735",
"s  c #B32A37",
"d  c #BC2D3A",
"f  c #B82B37",
"g  c #A53B3C",
"h  c #AB3E3F",
"j  c #A23438",
"k  c #B43934",
"l  c #B2343C",
"z  c #B23E3F",
"x  c #BA3438",
"c  c #DE003C",
"v  c #CB1E36",
"b  c #E61C3A",
"n  c #C32735",
"m  c #C62C3B",
"M  c #D72E3D",
"N  c #C5323D",
"B  c #CB333E",
"V  c #C43A3B",
"C  c #D4313D",
"Z  c #E12736",
"A  c #E2353F",
"S  c #83413E",
"D  c #8E423F",
"F  c #B94330",
"G  c #A93844",
"H  c #FF0045",
"J  c #FF0447",
"K  c #F81A46",
"L  c #CA3F49",
"P  c #D33541",
"I  c #DB3743",
"U  c #D53D4A",
"Y  c #D83B45",
"T  c #FA2246",
"R  c #F22A46",
"E  c #F92847",
"W  c #ED3E49",
"Q  c #E73B47",
"!  c #F93A46",
"~  c #854541",
"^  c #8B4543",
"/  c #864A45",
"(  c #894B48",
")  c #984847",
"_  c #9A514D",
"`  c #AC474A",
"'  c #BD4048",
"]  c #A8504E",
"[  c #A64D53",
"{  c #B84C52",
"}  c #AB5555",
"|  c #B95857",
" . c #BB6B56",
".. c #BD6260",
"X. c #AD7364",
"o. c #CB444A",
"O. c #C44146",
"+. c #DB434C",
"@. c #D2454F",
"#. c #CD4D55",
"$. c #C74E56",
"%. c #D84954",
"&. c #D74A56",
"*. c #CD5B5C",
"=. c #C95759",
"-. c #D15359",
";. c #DC545C",
":. c #D15C5E",
">. c #D85A5A",
",. c #E5444D",
"<. c #F3434D",
"1. c #E44D54",
"2. c #E74958",
"3. c #F7495A",
"4. c #E2555C",
"5. c #EA5259",
"6. c #F35058",
"7. c #C0655B",
"8. c #E16B5C",
"9. c #C85D64",
"0. c #D65F63",
"q. c #F84C62",
"w. c #EA5863",
"e. c #F75E67",
"r. c #F55A66",
"t. c #CC6265",
"y. c #DB6465",
"u. c #D9676A",
"i. c #CD7A6B",
"p. c #DE6E71",
"a. c #CE7C72",
"s. c #E5646B",
"d. c #EA6569",
"f. c #E76569",
"g. c #F46469",
"h. c #F9636C",
"j. c #F76769",
"k. c #ED766B",
"l. c #EC786F",
"z. c #E46F73",
"x. c #FD6D73",
"c. c #EA7771",
"v. c #FF767A",
"b. c #F7777A",
"n. c #DB816B",
"m. c #C08370",
"M. c #DA8371",
"N. c #EA926D",
"B. c #EA887A",
"V. c #F58D7D",
"C. c #F3937F",
"Z. c #FD7B82",
"A. c #C99A94",
"S. c #E28B86",
"D. c #FD8484",
"F. c #F48A80",
"G. c #ED9582",
"H. c #EA9787",
"J. c #FE9689",
"K. c #F69788",
"L. c #FF8490",
"P. c #E89490",
"I. c #F99E91",
"U. c #D8AD8B",
"Y. c #EBA38D",
"T. c #F3A58A",
"R. c #FBA18E",
"E. c #F2B28D",
"W. c #EEAC92",
"Q. c #E8A796",
"!. c #F6AA9C",
"~. c #FFAE98",
"^. c #ECBC9E",
"/. c #E9B698",
"(. c #F2BA99",
"). c #EFB4A6",
"_. c #F7B8A6",
"`. c #F8B7B0",
"'. c #ECCC9E",
"]. c #EAC7A2",
"[. c #F3CEAB",
"{. c #EED1AB",
"}. c #E8CEB5",
"|. c #F4C6BB",
" X c #EED6BB",
".X c #ECE0BA",
"XX c #F1CEC2",
"oX c #F7DAD3",
"OX c #EEE4C8",
"+X c #E8E4D3",
"@X c #F6E4DA",
"#X c #F4E7D5",
"$X c #F3F0DC",
"%X c #FDE7E7",
"&X c #FAF4EB",
"*X c #FEFFFE",
"=X c #FBF7F1",
"-X c None",
/* pixels */
"-X-X-X-X-X-X-X-X-X-X-X-X-X-X-X-X-X-X-X-X-X-X-X-X-X-X-X-X-X-X-X-X-X-X-X-X-X-X-X-X-X-X-X-X-X-X-X-X-X-X",
"-X-X-X-X-X-X-X-X-X-X-X-X-X-X-X-X-X-X-X-X-X-X-X-X-X-X-X-X-X-X-X-X-X-X-X-X-X-X-X-X-X-X-X-X-X-X-X-X-X-X",
"-X-X-X-X-X-X-X-X-X-X-X-X-X-X-X-X-X-X-X-X-X-X-X-X-X-X-X-X-X-X-X-X-X-X-X-X-X-X-X-X-X-X-X-X-X-X-X-X-X-X",
"-X-X-X-X-X-X-X-X-X-X-X-X-X-X-X-X-X-X-X-XB -X-X-X-X-X-X-X-X-X-X-X-X-X-X-X-X-X-X-X-X-X-X-X-X-X-X-X-X-X",
"-X-X-X-X-X-X-X-X-X-X-X-X-X-X-X-X-X-X-X-X-X-X-X-X-X-X-X-X-X-X-X-X-X-X-X-X-X-X-X-X-X-X-X-X-X-X-X-X-X-X",
"-X-X-X-X-X-X-X-X-X-X-X-X-X-X-X-X-X-X-XR -X-X-X-X-X-X-X-X-X-X-X-X-X-X-X-X-X-X-X-X-X-X-X-X-X-X-X-X-X-X",
"-X-X-X-X-X-X-X-X-X-X-X-X-X-X-X-X-X-X-X-X-X-X-X-X-X-X-X-X-X-X-X-X-X-X-X-X-X-X-X-X-X-X-X-X-X-X-X-X-X-X",
"-X-X-X-X-X-X-X-X-X-X-X-X-X-X-X-X-X-XT T -X-X-X-X-Xy y -X-X-X-X-X-Xy -X-X-X-X-X-X-X-X-X-X-X-X-X-X-X-X",
"-X-X-X-X-X-X-X-X-X-X-X-X-X-X-X-X-X-X! -X-X-X-X-X-X-X-X-X-X-X-X-Xy y -X-X-X-X-X-X-X-X-X-X-X-X-X-X-X-X",
"-X-X-X-X-X-X-X-X-X-X-X-X-X-X-X-X-X-Xr -X-XN N -X-X-X-X-X-X-X-X-Xy y -X-X-X-X-X-X-X-X-X-X-X-X-X-X-X-X",
"-X-X-X-X-X-X-X-X-X-X-X-X-X-X-X-X-X-X-X-X-X-X-X-X-X-X-X-X-X-X-X-X-X-X-X-X-X-X-X-X-X-X-X-X-X-X-X-X-X-X",
"-X-X-X-X-X-X-X-X-X-Xk -X-X-X-X-X-X-X-Xy d -X-X-X-X-X-X-X-Xi d y -X-X-X-X-X-X-X-X-X-X-X-X-X-X-X-X-X-X",
"-X-X-X-X-X-X-XR -X-X-Xy I p -X-X-X-Xy i -X-X5 y -X-X-X-X-X-Xy m x V k -X-X-X-X-X-X-X-X-X-X-X-X-X-X-X",
"-X-X-X-X-X-X-XK -X-X-Xp d y -X-X-X-X-X-X-X-X+.8 @ -X-X-X-X-X-X-X-Xd W -X-X-X-X-X-X-X-X-X-X-X-X-X-X-X",
"-X-X-X-X-X-X-X-X-X-X-X-X-X-X-X-X-X+ -X-X& =.g.*.4 -X-X-X-X-X-X: -X-X-X-X-X-X-X-X-X-X-X-X-X-X-X-X-X-X",
"-X-X-X-X-X-X-X-X-X-X-X-X-Xy y & ] [ & * q s.@.&.w.| -X-X-X-X-X- ~ : -X-X-X-X-X-X-X-X-X-X-X-X-X-X-X-X",
"-X-X-X-XN -X-X-X-X-X-X-X5 P i % ~ | = -X-XG K.W.b.h.y.5.M -X-X; - - -X-X~ -X-X-X-X-X-X-X-X-X-X-X-X-X",
"-X-X-X-X-X-X-X-XN -X-X-Xi a -X-Xs.*.-X-X. I D.c.l.x S x.e.;.-X-X-X-X* 8 S * y -X-X-X-X-X-X-X-X-X-X-X",
"-X-X-X-X-X-X-X-X-X-X-X-X-XL ) & ] 7 : : [ i.T.G./.B.c G.].T.4.-X-X-XO =.' = i -X-X-X-X-X-X-X-X-X-X-X",
"-X-X-X-X-X-X-X-X+.U Q -X-Xf.( % % : : ) 6.).$X$X}.!.C.G.W.G.3.,.> + -X} %.-X-Xt -XB -X-X-X-X-X-X-X-X",
"-X-X-X-X-X-X-Xm +.%.C 6 -Xq w g -X= t.x.).*X*X*X*X*X/.V.^.K.I.b.1...-X-Xl a @.5.2 N B -XB N -X-X-X-X",
"-X-X-X-X-X-X-X-X-X-Xi P -XN l j -X: ,.l.+X*X*X*X*X*X#X/.). X'.m.w.j.-X-X-XP x.g.-XI -X-X-X-X-X-X-X-X",
"-X-X-X-X-X-X-X-X-X-X-X-X-X5 m e -X-X< W./.%X*X*X*X*X*X*X.X{.}.Q.1.d.l -X-X3 e.;.-X,.I -X-X-X-X-X-X-X",
"-X-X-X-X-X-X-X-X-X-X-X-X-Xp i -X-X-X) v.h.oX*X*X*X*X*X*X+XXX.XS.&.V.X.-X-X-Xf 6 -X-Xp -XE J -X-X-X-X",
"-X-X-X-X-X-X-X-X-X-X-X-XP C i 2 h.m._ g.).&X*X*X=X*X*XoXN.|.[.a.1 (.i.U -X-Xp s -X-Xy -Xp -X-X-X-X-X",
"-X-X-X-X-X-X-X-X-X-X-X-X-X-X-X-Xq.~.U.b V.^.OX#X&X*X*X!.F.2.k. .2.J.c.} -X-X-XP -Xy -X-X-X-X-X-X-X-X",
"-X-X-X-X-X-X-X-X-X-X-X-X-X-X-X-X;.~.Q.v ;.F.E.{.*XXX`.B.:.=.,.6.z.y.| O -X-X-X-X-Xp y y -X-X-X-X-X-X",
"-X-X-X-X-X-X-X-X-X-X-X-X-X-X-Xq   ..B.;.# L f.S._.V.3.; # ( M 3.} -X7 -X-X-X-X-X-Xy y y -X-X-X-X-X-X",
"-X-X-X-X-X-X-X-X-X-X-X-X-X-X-X;.y.* -Xd.w.w -X0 o.` w -X-Xf h.` -X-X-X-X-X-X-X-X-X-X-X-X-X-X-X-X-X-X",
"-X-X-X-X-X-X-X-X-X-Xd -X-X-X-Xp.Z.z.-X0.j.h.h D h @ -X-X8.J.I.9.-X-X-Xy y -X-X-X-X-X-X-X-X-X-XH -X-X",
"-X-X-X-X-X-X-X-X-X-X-X-X-X-X-X$.Z.*.+ % S ^ z ^ D O.L #.D.^.R.$.-X-X-Xy y -X-X-X-X-X-X-X-X-X-X-X-X-X",
"-X-X-X-X-X-X-X-X-X-X-X-X-X-X-X, O.g -X) ) -X-X-X-Xh 9 o.h 6.` o -X-X-X-X-X-X-X-X-X-X-X-X-X-X-X-X-X-X",
"-X-X-X-X-X-X-XB -X-X-X-Xy -X-X-X-X-X-X-X=.*.- -X-X-X-X-Xd.-X{ ( -X-X-X-X-X-X-Xk -X-X-X-X-X-X-X-X-X-X",
"-X-X-X-X-X-X-X-X-X-X-X-X-Xi -X-Xt %.#.-X-X+ & - -X^ c.P.L.J.f.7 -X-X-X-X-X-X-X-X-X-X-X-X-X-X-X-X-X-X",
"-X-X-X-X-X-X-X-X-X-X-XF -X-X-X-X3 6.5.u -Xw D ^ X ) t.A.Z.Q 2 -X-X-X-X-X-X-X-X-X-X-X-X-X-X-X-X-X-X-X",
"-X-X-X-X-X-X-XB -X-X-X-X-X-X-X-X-Xn f 5 -XV <.! B.u.e.e.5.a -Xy -X-X-X-X-X-X-X-X-X-X-X-X-X-X-X-X-X-X",
"-X-X-X-X-X-X-X-X-X-X-X-X-X-X-X-X-X-X5 i -X-X-XM g.x.b.-X-X-Xi y -X-X-X-X-X-X-X-X-X-X-X-X-X-X-X-X-X-X",
"-X-X-X-X-X-X-X-X-X-X-X-X-X-X-Xy d -X-X-X-X-X-X-X-X-X-X-X-X-X-X-X-X-X-X-X-X-X-X-X-X-X-X-X-X-X-X-X-X-X",
"-X-X-X-X-X-X-X-X-X-X-X-X-X-X-X-X-Xy -X-X-X-X-X-X-X-X-X-X-X-X-X-X-X-Xp -X-X-X-X-X-X-X-X-X-X-X-X-X-X-X",
"-X-X-X-X-X-X-X-X-X-X-X-X-X-X-X-X-Xy -X-X-X-X-X-X-X-X-X-X-X-X-X-X-X-X-X-X-X-X-X-X-X-X-X-X-X-X-X-X-X-X",
"-X-X-X-X-X-X-X-X-X-X-X-X-X-X-X-X-X-X-X-X-X-XJ -X-X-X-X-X-X-X-X-X-X-X-X-X-X-X-X-X-X-X-X-X-X-X-X-X-X-X",
"-X-X-X-X-X-X-X-X-X-X-X-X-X-X-X-X-X-X-X-X-X-X-X-X-X-X-X-XN -X-X-X-X-X-X-X-X-X-X-X-X-X-X-X-X-X-X-X-X-X",
"-X-X-X-X-X-X-X-X-X-X-X-X-X-X-X-X-X-X-X-X-Xd -X-XR Q B -X-X-X-X-X-X-X-X-X-X-X-X-X-X-X-X-X-X-X-X-X-X-X",
"-X-X-X-X-X-X-X-X-X-X-X-X-X-X-X-X-X-X-X-X-X-X-X-X-X-X-X-X-XE -X-X-X-X-X-X-X-X-X-X-X-X-X-X-X-X-X-X-X-X",
"-X-X-X-X-X-X-X-X-X-X-X-X-X-X-X-X-X-X-X-X-X-X-X-X-X-X-X-X-X-XT -X-X-X-X-X-X-X-X-X-X-X-X-X-X-X-X-X-X-X",
"-X-X-X-X-X-X-X-X-X-X-X-X-X-X-X-X-X-X-X-X-X-X-X-X-X-X-X-X-X-X-XH -X-X-X-X-X-X-X-X-X-X-X-X-X-X-X-X-X-X",
"-X-X-X-X-X-X-X-X-X-X-X-X-X-X-X-X-X-X-X-X-X-X-X-X-X-X-X-X-X-X-X-X-X-X-X-X-X-X-X-X-X-X-X-X-X-X-X-X-X-X",
"-X-X-X-X-X-X-X-X-X-X-X-X-X-X-X-X-X-X-X-X-X-X-X-X-X-X-X-X-X-X-X-X-X-X-X-X-X-X-X-X-X-X-X-X-X-X-X-X-X-X",
"-X-X-X-X-X-X-X-X-X-X-X-X-X-X-X-X-X-X-X-X-X-X-X-X-X-X-X-X-X-X-X-X-X-X-X-X-X-X-X-X-X-X-X-X-X-X-X-X-X-X",
"-X-X-X-X-X-X-X-X-X-X-X-X-X-X-X-X-X-X-X-X-X-X-X-X-X-X-X-X-X-X-X-X-X-X-X-X-X-X-X-X-X-X-X-X-X-X-X-X-X-X"
};
