/* XPM */
static char *result[] = {
/* columns rows colors chars-per-pixel */
"50 50 194 2 ",
"   c #002613",
".  c #72231A",
"X  c #6C1C28",
"o  c #49332A",
"O  c #4E3A30",
"+  c #573D34",
"@  c #633C35",
"#  c #6F3E38",
"$  c #673A37",
"%  c #723D37",
"&  c #733D38",
"*  c #7C3A37",
"=  c #75433C",
"-  c #7B413B",
";  c #9B040B",
":  c #9C160A",
">  c #96001A",
",  c #950025",
"<  c #A30024",
"1  c #BE1E2F",
"2  c #B60E35",
"3  c #8A2B2B",
"4  c #8B2225",
"5  c #892C32",
"6  c #9E2431",
"7  c #9C2933",
"8  c #952F37",
"9  c #8B3436",
"0  c #833B37",
"q  c #8A3D39",
"w  c #823938",
"e  c #943C3A",
"r  c #9C3C3B",
"t  c #923239",
"y  c #B13E2F",
"u  c #A42633",
"i  c #A82734",
"p  c #A52A35",
"a  c #AB2A35",
"s  c #A82F38",
"d  c #B22B37",
"f  c #B52B39",
"g  c #BB2C3A",
"h  c #B82736",
"j  c #A53335",
"k  c #AC3234",
"l  c #AB333B",
"z  c #A23B3C",
"x  c #A8363B",
"c  c #B83E32",
"v  c #C6001A",
"b  c #E60000",
"n  c #CB172F",
"m  c #C91E36",
"M  c #E70525",
"N  c #E01B2F",
"B  c #C32C3B",
"V  c #D02E3C",
"C  c #C4313C",
"Z  c #CC333E",
"A  c #E32A39",
"S  c #83433D",
"D  c #8A4B38",
"F  c #99413F",
"G  c #B4402F",
"H  c #C74138",
"J  c #973C40",
"K  c #BE3342",
"L  c #BD3E47",
"P  c #BC3E4A",
"I  c #FE0046",
"U  c #F71D45",
"Y  c #C02A40",
"T  c #DF2040",
"R  c #D62A43",
"E  c #CC3645",
"W  c #C83946",
"Q  c #D53641",
"!  c #D93742",
"~  c #DE3B45",
"^  c #D73D48",
"/  c #F42646",
"(  c #F12B46",
")  c #E43A45",
"_  c #E93D47",
"`  c #E6394B",
"'  c #F43B4C",
"]  c #844A45",
"[  c #8C4844",
"{  c #984947",
"}  c #A34543",
"|  c #AD4D4D",
" . c #AC4447",
".. c #B54A4C",
"X. c #BB4448",
"o. c #A05147",
"O. c #BF4E50",
"+. c #B85858",
"@. c #C9484B",
"#. c #CB4754",
"$. c #DF4B53",
"%. c #C1575A",
"&. c #C55A5C",
"*. c #C45757",
"=. c #DB5354",
"-. c #D4595D",
";. c #DB575B",
":. c #E64C5A",
">. c #ED515C",
",. c #E5575F",
"<. c #F3525C",
"1. c #EB645F",
"2. c #CB5E62",
"3. c #DB5463",
"4. c #DA5B60",
"5. c #EE4D62",
"6. c #EB5A61",
"7. c #E65563",
"8. c #FA5663",
"9. c #CB6463",
"0. c #CF6F61",
"q. c #D66266",
"w. c #D36867",
"e. c #D27D65",
"r. c #D87C71",
"t. c #E6656A",
"y. c #EC6569",
"u. c #ED6B6D",
"i. c #E56668",
"p. c #F3646B",
"a. c #FA646A",
"s. c #F36A6E",
"d. c #F36167",
"f. c #E9756B",
"g. c #F0796F",
"h. c #E46E71",
"j. c #EB6F73",
"k. c #FC6D73",
"l. c #F96370",
"z. c #E67475",
"x. c #FF7076",
"c. c #FF757B",
"v. c #F77C7A",
"b. c #DC8468",
"n. c #D58979",
"m. c #E98B79",
"M. c #EB8776",
"N. c #F6877B",
"B. c #EC907D",
"V. c #F87B81",
"C. c #EF8D81",
"Z. c #FB8382",
"A. c #F38987",
"S. c #EC9D84",
"D. c #EF9D8A",
"F. c #F39D85",
"G. c #F39C8B",
"H. c #FF968D",
"J. c #EF9F97",
"K. c #D9A187",
"L. c #D9AC92",
"P. c #EDA68C",
"I. c #EDA692",
"U. c #F5AA94",
"Y. c #ECBC9D",
"T. c #E8B295",
"R. c #F7B491",
"E. c #E0A1A0",
"W. c #F1ABA3",
"Q. c #F3B9A8",
"!. c #FABABA",
"~. c #EBC09C",
"^. c #EDC4A2",
"/. c #F0C2A6",
"(. c #FFD5AC",
"). c #EFC5B8",
"_. c #F3CEB4",
"`. c #FFD4B1",
"'. c #F0CCC0",
"]. c #F9D7C3",
"[. c #F6DBC2",
"{. c #FBDDD9",
"}. c #FDD8D3",
"|. c #F1E2CB",
" X c #F4EBDC",
".X c #F8E5DA",
"XX c #F5F1DE",
"oX c #FAEBE3",
"OX c #F9E6E2",
"+X c #FAF3EC",
"@X c #FBFDF6",
"#X c #FFFEFE",
"$X c #FBF3F0",
"%X c None",
/* pixels */
"%X%X%X%X%X%X%X%X%X%X%X%X%X%X%X%X%X%X%X%X%X%X%X%X%X%X%X%X%X%X%X%X%X%X%X%X%X%X%X%X%X%X%X%X%X%X%X%X%X%X",
"%X%X%X%X%X%X%X%X%X%X%X%X%X%X%X%X%X%X%X%X%X%X%X%X%X%X%X%X%X%X%X%X%X%X%X%X%X%X%X%X%X%X%X%X%X%X%X%X%X%X",
"%X%X%X%X%X%X%X%X%X%X%X%X%X%X%X%X%X%X%X%X%X%X%X%X%X%X%X%X%X%X%X%X%X%X%X%X%X%X%X%X%X%X%X%X%X%X%X%X%X%X",
"%X%X%X%X%X%X%X%X%X%X%X%X%X%X%X%X%X%X%X%X%X%X%X%X%X%X%X%X%X%X%X%X%X%X%X%X%X%X%X%X%X%X%X%X%X%X%X%X%X%X",
"%X%X%X%X%X%X%X%X%X%X%X%X%X%X%X%X%X%X%X%X%X%X%X%X%X%X%X%X%X%X%X%X%X%X%X%X%X%X%X%X%X%X%X%X%X%X%X%X%X%X",
"%X%X%X%X%X%X%X%X%X%X%X%X%X%X%X%X%XZ %X%Xu u %X%X%X%X%X%X%X%X%X%X%X%X%X%X%X%X%X%X%X%X%X%X%X%X%X%X%X%X",
"%X%X%X%X%X%X%X%X%X%X%X%X%X%X%X%X%X%X%X%X%X%X%X%X%X%X%X%X%X%X%X%X%X%X%X%X%X%X%X%X%X%X%X%X%X%X%X%X%X%X",
"%X%X%X%X%X%X%X%X%X%X%X%X%X%X%X%X%X%X%X%X%X%XH c y %X%X%X%X%X%X%X%X%X%X%X%X%X%X%X%X%X%X%X%X%X%X%X%X%X",
"%X%X%X%X%X%X%X%X%X%X%X%X%X%X%X%X%X%X%X%X%X%X%X%X%X%X%X%X%X%X%X%X%X%X%X%X%X%Xd Q %X%X%X%X%X%X%X%X%X%X",
"%X%X%X%X%X%X%X%X%X%X%X%X%X%X%X%X%X%Xi C C %X%X%X%X%X%X%X%X%X%Xu %X%X%X%X%X%X%X%X%X%X%X%X%X%X%X%X%X%X",
"%X%X%X%X%X%X%X%X%X%XG %X%X%X%X%X%X%Xf 6 %X%X%X%X%X%X%X%X%X%X%Xu k %X%X%X%X%X%X%X%X%X%X%X%X%X%X%X%X%X",
"%X%X%X%X%X%X%X%X%X%X%X%X%X%X%X%X%X~ j %X%X%X%X%X%X%X6 E %X%X%X%Xk %X%X%X%X%X%X%X%X%X%X%X%X%X%X%X%X%X",
"%X%X%X%X%X%X%X%X%X%X%X%X%X%Xi E ! B < d %X%X%X%X%X%X%Xa g %X%X%X%X%X%Xu %X%X%X%X%X%X%X%X%X%X%X%X%X%X",
"%X%X%X%X%X%X%X%X%X%X%X%X%X%XQ %X%X*.v.E %X%X%X%X% %X%X%X%X%X%X%X%X%XE ) d %X%X%X%X%X%X%X%X%X%X%X%X%X",
"%X%X%X%X%X%X%XZ %X%X%X%Xu g j %X4.H.M.C l ] %.0 ] = X %X%X%X%X%Xt %X%XZ %X%X%X%X%X%X%XC %X%X%X%X%X%X",
"%X%X%X%X%X%X%X%X%Xg %Xu u %X%Xo.Y.8.v $.8...s t ,.-.n.+.&.3 %X%Xx w 7 6 %X%X%X%X%X%X%X%X%X%X%X%X%X%X",
"%X%X%X%X( %X%X%X%XZ %X%Xi %X%X(.K.2 J &.j.y.u.K.T.p.Z.Z.V.&.%X%XJ C l d %X%X%X%X! _ %X%X%X%X%X%X%X%X",
"%X%X%X%X%X%X%X%X%X%X%Xa s %XZ.`.9., . ;.t.3.U.~.N.$.6.6.p.a.=.s.a.K C %X% t %X%Xg C %X%X%X%X%X%X%X%X",
"%X%X%X%X%X%X%X%X%X%X%Xu %X%Xh.a.>.4.&...n E.Y.G.#.0 r A D.N.` V.x.V 2.[ = r B %X%X%X%X%X%X%X%X%X%X%X",
"%X%X%X%X%X%X%X%X%X%X%X%X%X%X> $.y.p.x.E 0./.B.A.2.; ; Y S./.m.` c.q.o - % * u %X%X%X%X%X%X%X%X%X%X%X",
"%X%X%X%X%X%X%X%X%XQ ' %Xi u %XX.p.s.s.l.G.[.m.{.{.W.}.e.z.v.f.d f.&.= # s u %X%X%X%X%X%X%X%X%X%X%X%X",
"%X%X%X%X%X%X%X%X%XQ Q %Xu i %X} O.j.4.t.g.S.Q.#X#X#X#XoXP.T.' %Xn.N. .+ %Xu %X%X%X%Xu u %X%X%X%X%X%X",
"%X%X%X%X%X%X%X%X%X%X%X%Xu %X%X@ ] { %XN 9.F. X#X#X#X#X#X XP.k.b !._.s O %Xf Z %X%X%X%Xu %X%X%X%X%X%X",
"%X%X%X%X%X%X%X%X%X%X%X%X%X%X%XF r %X%Xi.5.g. X#X#X#X#X#X@XF.7.@.Q.].=.+.%XC Q %X%X%X%X%X%X%X%X%X%X%X",
"%X%X%X%X%X%X%X%X%X%X%Xu %X%X$ F F %X4 r.S.I.$X#X#X#X#X#X{.s.%X6.).C.,.;.%X%X%X%X%X%X%X%X%X%X%X%X%X%X",
"%X%X%X%X%X%X%X%X%X%X%Xi %X%Xo -.| } 8.G.~.^.oX#X#X#X#X@XY.m.W M A.V.d.k.%X%X%X%X%X%Xu Z %X%X%X%X%X%X",
"%X%X%X%X%X%X%X%X%X%X%Xu %X%X%X%X0 +.5.I.S.I.[.@X#X#X#X+XG.f.g [ : e z.k.%X%Xu a %X%Xu ) %X%X%X%X%X%X",
"%X%X%X%X%X%X%X%X%X%X%X%X%X%X~ r %Xr >.C.m.5.L.oX#X#X#X#X.X_.e.5 %X%Xk.=.%Xi u u %X%X%X%X%X%X%X%X%X%X",
"%X%X%X%X%X%X%Xy %X%X%X%X%X%X_ <.%X%X,.6.) u.=.9.'.#X#X#XXXR.V %X%Xq ..%Xu f %X%X%X%X%Xg Z %X%X%X%X%X",
"%X%X%X%X%X%X%XG %X%X%X) %X%X%Xh.w.  } a.L j ^ 1 b.[.).XX{.M. .%X- ] %X%Xu u i %X%X%X%Xu %X%X%X%X%X%X",
"%X%X%X%X%X%X%X%X%X%X%Xg %X%X%X%Xc.h.%X%X0 = # F P D 1.Z.@.8 %X%X% & %X%Xu %Xu %X%X%X%X%X%X%X%X%X%X%X",
"%X%X%X%X%X%X%X%X%X%X%Xu %X%X%X%X%X6.%X%X%X%X% = = $ %X%X%X%X%X%X%X%X%X%X%Xu %X%X%X%X%X%X%X%X%X%X%X%X",
"%X%X%X%X%X%X%X%X%X%X%X%X%X%X%X%X8 %X%X%X%X%X%X%X%X%X%X%X%X%X%X%X%X%X%X%X%X%X%X%X%X%X%X%X%X%X%X%X%X%X",
"%X%X%X%X%X%X%X%X%X%X%X%X%X%X%X%X4.>.5 %X%X% & & %X%X%X%X%X%X%X%X%X%X%X%X%X%Xg %X%X%X%X%X%X%X%X%X%X%X",
"%X%X%X%X%X%X%X%X%X%X%X%X%Xu %X%XK X.%X%X%X%X& - = %X%X3 9 %X%X%X%X%X%X%X%X%Xu %X%X%X%X%X%X%X%X%X%X%X",
"%X%X%X%X%X%X%X%X%X%X%X%X%X6 h %X%X%X%X%X%X%X%X%X%X%X..<.@.%X%X%X%XC %X%X%X%X%X%X%X%X%X%X%X%X%X%X%X%X",
"%X%X%X%X%X%X%X%X%X%X%X%X%X%X%X%X( %X%X%X%Xu u %X%X%XW X.x %X%X%X%X%X%X%X%X%X%X%X%X%X%X%X%X%X%X%X%X%X",
"%X%X%X%X%X%X%X%X%X%X%X%X%X%X%XU %X%X%X%X%X%Xd %X%X%X%X%X%X%X%X%X%X%X7 T %X%X%X%X%X%X%X%X%X%X%X%X%X%X",
"%X%X%X%X%X%X%X%X%X%X%X%X%X%X%XI %X%X%X%X%X%Xd %X%X%X%Xu a %X%X%X%X%X%XI %X%X%X%X%X%X%X%X%X%X%X%X%X%X",
"%X%X%X%X%X%X%X%X%X%X%X%X%X%X%X%X%X%X%X%X%X%X%X%X%X%X%X%X%X%X%X%Xu u %X%X%X%X%X%X%X%X%X%X%X%X%X%X%X%X",
"%X%X%X%X%X%X%X%X%X%X%X%X%X%X%X%X%X%X%X%X%X%X%X%X%X%X%X%X%X%X%X%X%X%X%X%X%X%X%X%X%X%X%X%X%X%X%X%X%X%X",
"%X%X%X%X%X%X%X%X%X%X%X%X%X%X%X%X%X%X/ %X%X%X%X%X%X%X%X%X%X%X%X%X%X%X%X%X%X%X%X%X%X%X%X%X%X%X%X%X%X%X",
"%X%X%X%X%X%X%X%X%X%X%X%X%X%X%X%X%X%X%X%X%X%X%X%X%X%X%X%X%X%X%X%X%X%X%X%X%X%X%X%X%X%X%X%X%X%X%X%X%X%X",
"%X%X%X%X%X%X%X%X%X%X%X%X%X%X%X%X%X%X%X%X%X%X%X%X%X%X%X%X%X%X! _ %X%X%X%X%X%X%X%X%X%X%X%X%X%X%X%X%X%X",
"%X%X%X%X%X%X%X%X%X%X%X%X%X%X%X%X%X%X%X%X/ %X%X%X%X%X%X%X%X%X%X%X%X%X%X%X%X%X%X%X%X%X%X%X%X%X%X%X%X%X",
"%X%X%X%X%X%X%X%X%X%X%X%X%X%X%X%X%X%X%X%X%X%X%X%X%X%XI %X%X%X%X%X%X%X%X%X%X%X%X%X%X%X%X%X%X%X%X%X%X%X",
"%X%X%X%X%X%X%X%X%X%X%X%X%X%X%X%X%X%X%X%X%X%X%X%X%X%X%X%X%X%X%X%X%X%X%X%X%X%X%X%X%X%X%X%X%X%X%X%X%X%X",
"%X%X%X%X%X%X%X%X%X%X%X%X%X%X%X%X%X%X%X%X%X%X%X%X%X%X%X%X%X%X%X%X%X%X%X%X%X%X%X%X%X%X%X%X%X%X%X%X%X%X",
"%X%X%X%X%X%X%X%X%X%X%X%X%X%X%X%X%X%X%X%X%X%X%X%X%X%X%X%X%X%X%X%X%X%X%X%X%X%X%X%X%X%X%X%X%X%X%X%X%X%X",
"%X%X%X%X%X%X%X%X%X%X%X%X%X%X%X%X%X%X%X%X%X%X%X%X%X%X%X%X%X%X%X%X%X%X%X%X%X%X%X%X%X%X%X%X%X%X%X%X%X%X"
};
