/* XPM */
static char *result[] = {
/* columns rows colors chars-per-pixel */
"50 50 167 2 ",
"   c #020101",
".  c #060800",
"X  c #080805",
"o  c #03030A",
"O  c #09090D",
"+  c #0A0300",
"@  c #181700",
"#  c #1B1907",
"$  c #0A0A13",
"%  c #00001D",
"&  c #0B0C1F",
"*  c #000A1E",
"=  c #120F14",
"-  c #121014",
";  c #12121C",
":  c #1C1C1F",
">  c #1D1513",
",  c #2E1B00",
"<  c #370D12",
"1  c #000125",
"2  c #00022E",
"3  c #0C0C2B",
"4  c #131322",
"5  c #1A1A25",
"6  c #16162B",
"7  c #1D1D2B",
"8  c #000236",
"9  c #01023C",
"0  c #020939",
"q  c #0E1032",
"w  c #111235",
"e  c #1A1A35",
"r  c #12143E",
"t  c #1E1E3B",
"y  c #002830",
"u  c #24242C",
"i  c #29292D",
"p  c #292423",
"a  c #2A2A33",
"s  c #20203C",
"d  c #2A2A39",
"f  c #39393D",
"g  c #561219",
"h  c #720000",
"j  c #790000",
"k  c #513A27",
"l  c #673A2D",
"z  c #0D064C",
"x  c #0D0646",
"c  c #13074C",
"v  c #141746",
"b  c #171A4D",
"n  c #1A1948",
"m  c #00055F",
"M  c #140953",
"N  c #190954",
"B  c #170A5B",
"V  c #1C0C5C",
"C  c #120754",
"Z  c #1B1E5D",
"A  c #181C59",
"S  c #231459",
"D  c #1F225B",
"F  c #2F2F41",
"G  c #302F41",
"H  c #333344",
"J  c #363648",
"K  c #39394C",
"L  c #222353",
"P  c #22255E",
"I  c #3D3E53",
"U  c #1F0E60",
"Y  c #210E62",
"T  c #1D2163",
"R  c #1F226C",
"E  c #1A2373",
"W  c #222565",
"Q  c #262966",
"!  c #22256B",
"~  c #282B67",
"^  c #232674",
"/  c #252976",
"(  c #2C2E73",
")  c #25297B",
"_  c #292D7E",
"`  c #24237D",
"'  c #2C307E",
"]  c #3B3B76",
"[  c #34317A",
"{  c #59595F",
"}  c #54545C",
"|  c #7A5B42",
" . c #7F6A47",
".. c #5B5B61",
"X. c #515279",
"o. c #5F607F",
"O. c #64646B",
"+. c #7A6A6B",
"@. c #6B6B73",
"#. c #820000",
"$. c #8D0000",
"%. c #960000",
"&. c #8B1A17",
"*. c #A4091E",
"=. c #881A28",
"-. c #B11B2D",
";. c #AB2730",
":. c #D50000",
">. c #C40D2C",
",. c #AD3343",
"<. c #CD3C4A",
"1. c #D63E4D",
"2. c #9D5849",
"3. c #BB545A",
"4. c #81674C",
"5. c #996040",
"6. c #9D6946",
"7. c #916554",
"8. c #AF745B",
"9. c #B17E58",
"0. c #AE5E61",
"q. c #B25C60",
"w. c #B97578",
"e. c #9B877C",
"r. c #B18F6F",
"t. c #BA8F6D",
"y. c #BC926C",
"u. c #C3956D",
"i. c #C49C74",
"p. c #CAA179",
"a. c #212780",
"s. c #2A2E82",
"d. c #282D87",
"f. c #2C3185",
"g. c #2D3289",
"h. c #31368D",
"j. c #3A3C85",
"k. c #252D91",
"l. c #2D3494",
"z. c #333791",
"x. c #343993",
"c. c #363C9A",
"v. c #3A3E9C",
"b. c #2C4083",
"n. c #494B81",
"m. c #525484",
"M. c #807186",
"N. c #85858D",
"B. c #878791",
"V. c #8A8A93",
"C. c #8F8F9A",
"Z. c #93939E",
"A. c #A08383",
"S. c #BC8B8E",
"D. c #BD9496",
"F. c #9999A4",
"G. c #9E9EAB",
"H. c #A2A2AC",
"J. c #A5A5B2",
"K. c #ABABB9",
"L. c #D6878B",
"P. c #CC9294",
"I. c #D3AE8B",
"U. c #E7DADA",
"Y. c #F0EBEB",
"T. c white",
"R. c None",
/* pixels */
"R.R.R.R.R.R.R.R.R.R.R.R.R.R.R.R.R.R.R.R.R.R.R.R.R.R.R.R.R.R.R.R.R.R.R.R.R.R.R.R.R.R.R.R.R.R.R.R.R.R.",
"R.R.R.R.R.R.R.R.R.R.R.R.R.R.R.R.R.R.R.R.R.R.R.R.R.R.R.R.R.R.R.R.R.R.R.R.R.R.R.R.R.R.R.R.R.R.R.R.R.R.",
"R.R.R.R.R.R.R.R.R.R.R.R.R.R.R.R.R.R.R.R.R.R.R.R.R.R.4 5 R.R.R.R.R.R.R.R.R.R.R.R.R.R.R.R.R.R.R.R.R.R.",
"R.R.R.R.R.R.R.R.R.R.R.R.R.R.R.R.R.R.R.R.R.R.R.R.; ; ; - R.R.R.R.R.R.R.R.R.R.R.R.R.R.R.R.R.R.R.R.R.R.",
"R.R.R.R.R.R.R.R.R.R.R.R.R.R.R.R.R.R.R.R.R.R.R.R.R.;     R.R.R.R.R.R.R.R.R.R.R.R.R.R.R.R.R.R.R.R.R.R.",
"R.R.R.R.R.R.R.R.R.R.R.R.R.R.R.R.R.R.R.R.R.R.R.R.R.R.R.+.D.R.R.R.R.R.R.R.R.R.R.R.R.R.R.R.R.R.R.R.R.R.",
"R.R.R.R.R.R.R.R.R.R.R.R.R.R.R.R.R.R.R.R.R.R.R.R.R.R.R.A.>.<.R.*.-.R.R.R.R.R.R.R.R.R.R.R.R.R.R.R.R.R.",
"R.R.R.R.R.R.R.R.R.R.R.R.R.R.R.R.R.R.R.R.R.R.R.R.R.R.    < :.=.y ,.1.R.R.R.R.R.R.R.R.R.R.R.R.R.R.R.R.",
"R.R.R.R.R.R.R.R.R.R.R.R.R.R.R.R.R.R.R.R.R.R.R.R.R.R.* o g D.>.#.h %.R.R.R.R.R.R.R.R.R.R.R.R.R.R.R.R.",
"R.R.R.R.R.R.R.R.R.R.R.R.R.R.R.R.R.R.R.R.R.R.R.R.R.R.k 5.;.T.Y.w.P.U.R.R.R.R.R.R.R.R.R.R.R.R.R.R.R.R.",
"R.R.R.R.R.R.R.R.R.R.R.R.R.R.R.R.R.R.R.R.R.R.R.R.R.R.p l %.0.L.3.q.S.R.R.R.R.R.R.R.R.R.R.R.R.R.R.R.R.",
"R.R.R.R.R.R.R.R.R.R.R.R.R.R.R.R.R.R.R.R.R.R.R.R.R.R.  , 8.$.$.%.%.j R.R.R.R.R.R.R.R.R.R.R.R.R.R.R.R.",
"R.R.R.R.R.R.R.R.R.R.R.R.R.R.R.R.R.R.R.R.R.R.R.7 @ P g.]  .t.2.=.&.&.R.R.R.R.R.R.R.R.R.R.R.R.R.R.R.R.",
"R.R.R.R.R.R.R.R.R.R.R.R.R.R.R.R.R.R.R.R.R.R.H J i Q c.l.9 r.y.| 8 R.R.R.R.R.R.R.R.R.R.R.R.R.R.R.R.R.",
"R.R.R.R.R.R.R.R.R.R.R.R.R.R.R.R.R.R.R.R.R.H H H J i 7 ( v.o     ^ c.R.R.R.R.R.R.R.R.R.R.R.R.R.R.R.R.",
"R.R.R.R.R.R.R.R.R.R.R.R.R.R.R.R.R.R.R.R.H J H H H a e ! ^ j.L + Q c.x.R.R.R.R.R.R.R.R.R.R.R.R.R.R.R.",
"R.R.R.R.R.R.R.R.R.R.R.R.R.R.R.R.R.R.R.R.K H H d p 5 Q x.s.g.x.D P v.x.R.R.R.R.R.R.R.R.R.R.R.R.R.R.R.",
"R.R.R.R.R.R.R.R.R.R.R.R.R.R.R.R.R.R.R.H H J d : n ! s.x.f.f.f.v P x.s.R.R.R.R.R.R.R.R.R.R.R.R.R.R.R.",
"R.R.R.R.R.R.R.R.R.R.R.R.R.R.R.R.R.R.R.K H d 7 # Q d.^ ) h.c.n ^ c.h.Q H R.R.R.R.R.R.R.R.R.R.R.R.R.R.",
"R.R.R.R.R.R.R.R.R.R.R.R.R.R.R.R.R.R.R.J H 5 5 R.R.( / / x.g.w P ' ~ a H H R.R.R.R.R.R.R.R.R.R.R.R.R.",
"R.R.R.R.R.R.R.R.R.R.R.R.R.R.R.R.R.R.R.H u 7 O R.R.R.` ^ ' h.L     o 7 H K R.R.R.R.R.R.R.R.R.R.R.R.R.",
"R.R.R.R.R.R.R.R.R.R.R.R.R.R.R.R.R.R.R.J ; $ =   R.m.j.^ T 9 o I @.X.= 7 5 = > R.R.R.R.R.R.R.R.R.R.R.",
"R.R.R.R.R.R.R.R.R.R.R.R.R.R.R.R.R.R.R.G d .   4.p.I.e.9 1 O.O.V.H.B.  7 O o     R.R.R.R.R.R.R.R.R.R.",
"R.R.R.R.R.R.R.R.R.R.R.R.R.R.R.R.R.R.R.R.u 3 % r.u.y.9.7.R n.m.n.b.] R.R.R.6.t.i.i.p.R.R.R.R.R.R.R.R.",
"R.R.R.R.R.R.R.R.R.R.R.R.R.R.R.R.R.R.R.S n N N 2 3 m E [ z.k.k.a.) l.x.R.R.R.R.u.R.R.R.R.R.R.R.R.R.R.",
"R.R.R.R.R.R.R.R.R.R.R.R.R.R.R.R.R.R.N M z 2 A Z _ [ ^ ^ z.x.c.D   W v.c.R.R.R.R.R.R.R.R.R.R.R.R.R.R.",
"R.R.R.R.R.R.R.R.R.R.R.R.R.R.R.V V M 9 1 0 R h.z.x.x.h.z.x.x.s.b   w ) h.R.R.R.R.R.R.R.R.R.R.R.R.R.R.",
"R.R.R.R.R.R.R.R.R.R.R.R.R.Y B 9 2 2 R.R.R.s.x.x.h.x.x.x.x.x.s.v X & & / ^ R.R.R.R.R.R.R.R.R.R.R.R.R.",
"R.R.R.R.R.R.R.R.R.U U M z x R.R.R.R.R.R./ d.h.x.x.x.z.x.z._ ) v ; t e r d.R.R.R.R.R.R.R.R.R.R.R.R.R.",
"R.R.R.R.R.R.R.Y V z 9 8 1 R.R.R.R.R.R.R.g.^ ^ s.z.x.x.x.x.^ ) b = t e $ T R.R.R.R.R.R.R.R.R.R.R.R.R.",
"R.R.R.c B N N M 0 R.R.R.R.R.R.R.R.R.R.R.R.b ^ ^ _ f.f.f.s./ Z 3 ; t t t . R.R.R.R.R.R.R.R.R.R.R.R.R.",
"R.R.R.R.R.R.R.R.R.R.R.R.R.R.R.R.R.R.R.R.R.. 3 3 A R ^ ^ ^ ) w   6 t t s e R.R.R.R.R.R.R.R.R.R.R.R.R.",
"R.R.R.R.R.R.R.R.R.R.R.R.R.R.R.R.R.R.R.R.R.$ ; .   v T Z Z T 3 6 t t t 6 $ R.R.R.R.R.R.R.R.R.R.R.R.R.",
"R.R.R.R.R.R.R.R.R.R.R.R.R.R.R.R.R.R.R.R.O O t e 4           7 t 7 4 4   O R.R.R.R.R.R.R.R.R.R.R.R.R.",
"R.R.R.R.R.R.R.R.R.R.R.R.R.R.R.R.R.R.R.R.; $ X e t e & $ $ 6     ; . o O R.R.R.R.R.R.R.R.R.R.R.R.R.R.",
"R.R.R.R.R.R.R.R.R.R.R.R.R.R.R.R.R.R.R.R.    - 4 6 6 6 X O R...f   $ O R.R.R.R.R.R.R.R.R.R.R.R.R.R.R.",
"R.R.R.R.R.R.R.R.R.R.R.R.R.R.R.R.R.R.R.R.Z.u     X . . R.R.K.H.C.}   R.R.R.R.R.R.R.R.R.R.R.R.R.R.R.R.",
"R.R.R.R.R.R.R.R.R.R.R.R.R.R.R.R.R.R.R.R.K.B...i   R.R.R.R.G.K.G.N.R.R.R.R.R.R.R.R.R.R.R.R.R.R.R.R.R.",
"R.R.R.R.R.R.R.R.R.R.R.R.R.R.R.R.R.R.R.R.J.B.F.R.R.R.R.R.R.J.F.F.N.R.R.R.R.R.R.R.R.R.R.R.R.R.R.R.R.R.",
"R.R.R.R.R.R.R.R.R.R.R.R.R.R.R.R.R.R.R.R.Z.V.N.R.R.R.R.R.R.V.V.N.R.R.R.R.R.R.R.R.R.R.R.R.R.R.R.R.R.R.",
"R.R.R.R.R.R.R.R.R.R.R.R.R.R.R.R.R.R.R.R.V.@.R.R.R.R.R.R.R.B.F.R.R.R.R.R.R.R.R.R.R.R.R.R.R.R.R.R.R.R.",
"R.R.R.R.R.R.R.R.R.R.R.R.R.R.R.R.R.R.R.R.J.  R.R.R.R.R.R.N.V.O.N.R.R.R.R.R.R.R.R.R.R.R.R.R.R.R.R.R.R.",
"R.R.R.R.R.R.R.R.R.R.R.R.R.R.R.R.R.R.R.} J.N.R.R.R.R.R.R.f ; @.V.V.N.R.R.R.R.R.R.R.R.R.R.R.R.R.R.R.R.",
"R.R.R.R.R.R.R.R.R.R.R.R.R.R.R.R.R.R.R.R.R.R.R.R.R.R.R.R.R.R.R.R.R.R.R.R.R.R.R.R.R.R.R.R.R.R.R.R.R.R.",
"R.R.R.R.R.R.R.R.R.R.R.R.R.R.R.R.R.R.R.R.R.R.R.R.R.R.R.R.R.R.R.R.R.R.R.R.R.R.R.R.R.R.R.R.R.R.R.R.R.R.",
"R.R.R.R.R.R.R.R.R.R.R.R.R.R.R.R.R.R.R.R.R.R.R.R.R.R.R.R.R.R.R.R.R.R.R.R.R.R.R.R.R.R.R.R.R.R.R.R.R.R.",
"R.R.R.R.R.R.R.R.R.R.R.R.R.R.R.R.R.R.R.R.R.R.R.R.R.R.R.R.R.R.R.R.R.R.R.R.R.R.R.R.R.R.R.R.R.R.R.R.R.R.",
"R.R.R.R.R.R.R.R.R.R.R.R.R.R.R.R.R.R.R.R.R.R.R.R.R.R.R.R.R.R.R.R.R.R.R.R.R.R.R.R.R.R.R.R.R.R.R.R.R.R.",
"R.R.R.R.R.R.R.R.R.R.R.R.R.R.R.R.R.R.R.R.R.R.R.R.R.R.R.R.R.R.R.R.R.R.R.R.R.R.R.R.R.R.R.R.R.R.R.R.R.R.",
"R.R.R.R.R.R.R.R.R.R.R.R.R.R.R.R.R.R.R.R.R.R.R.R.R.R.R.R.R.R.R.R.R.R.R.R.R.R.R.R.R.R.R.R.R.R.R.R.R.R."
};
