/* XPM */
static char *result[] = {
/* columns rows colors chars-per-pixel */
"50 50 177 2 ",
"   c #020200",
".  c #05050C",
"X  c #09090E",
"o  c #0A0B00",
"O  c #100F0F",
"+  c #1B1A0E",
"@  c #000014",
"#  c #0B0B13",
"$  c #00001A",
"%  c #0D0E1C",
"&  c #110D10",
"*  c #001615",
"=  c #111115",
"-  c #13131A",
";  c #1A171E",
":  c #1A1B17",
">  c #200000",
",  c #231B1F",
"<  c #2B2600",
"1  c #24231C",
"2  c #000124",
"3  c #00022E",
"4  c #080824",
"5  c #131323",
"6  c #1A1A24",
"7  c #16162B",
"8  c #1B1B2A",
"9  c #18152C",
"0  c #010134",
"q  c #01073C",
"w  c #0E1037",
"e  c #121335",
"r  c #1B1B34",
"t  c #12133A",
"y  c #1E1E3B",
"u  c #2C1825",
"i  c #21212D",
"p  c #372A22",
"a  c #252532",
"s  c #2B2B33",
"d  c #20203E",
"f  c #2C2C3C",
"g  c #353438",
"h  c #441E15",
"j  c #770000",
"k  c #7F0A1D",
"l  c #593F2C",
"z  c #49383A",
"x  c #564B2F",
"c  c #61453B",
"v  c #754B3B",
"b  c #7B5337",
"n  c #000046",
"m  c #0C0645",
"M  c #0D074C",
"N  c #00004C",
"B  c #14084F",
"V  c #121542",
"C  c #151749",
"Z  c #191C4E",
"A  c #17194C",
"S  c #000357",
"D  c #150954",
"F  c #190B55",
"G  c #1B0B5B",
"H  c #1B1D5A",
"J  c #191C59",
"K  c #1D205B",
"L  c #1D2057",
"P  c #333344",
"I  c #373749",
"U  c #3A3A4D",
"Y  c #262957",
"T  c #00006D",
"R  c #1E0D66",
"E  c #0C166A",
"W  c #1C1F60",
"Q  c #000071",
"!  c #00007A",
"~  c #001F7D",
"^  c #161D7B",
"/  c #210E63",
"(  c #092B63",
")  c #1E2162",
"_  c #00207D",
"`  c #232665",
"'  c #20246D",
"]  c #282B6C",
"[  c #282A65",
"{  c #2E316B",
"}  c #222674",
"|  c #252975",
" . c #262A7C",
".. c #2A2D7C",
"X. c #282C75",
"o. c #312E74",
"O. c #2D307A",
"+. c #343377",
"@. c #583652",
"#. c #5C4844",
"$. c #58585E",
"%. c #69595A",
"&. c #7C634D",
"*. c #5D5D63",
"=. c #5D5D6A",
"-. c #64466B",
";. c #6F5174",
":. c #63636A",
">. c #626371",
",. c #717179",
"<. c #8B0000",
"1. c #9D0000",
"2. c #930000",
"3. c #86001C",
"4. c #970017",
"5. c #A30000",
"6. c #B30000",
"7. c #AD001F",
"8. c #871828",
"9. c #852734",
"0. c #9C2330",
"q. c #993238",
"w. c #A9212D",
"e. c #C60529",
"r. c #C52639",
"t. c #8B4239",
"y. c #D43547",
"u. c #984941",
"i. c #A74E53",
"p. c #8F7557",
"a. c #987354",
"s. c #A16847",
"d. c #BA8A5B",
"f. c #A58463",
"g. c #B98866",
"h. c #BC9772",
"j. c #CB996B",
"k. c #C9A37A",
"l. c #D5A77B",
"z. c #001E80",
"x. c #192A8A",
"c. c #292E81",
"v. c #292D84",
"b. c #2C3185",
"n. c #2F338A",
"m. c #31368D",
"M. c #303587",
"N. c #323791",
"B. c #333892",
"V. c #393B95",
"C. c #363B9B",
"Z. c #363A99",
"A. c #383EA2",
"S. c #7B7B84",
"D. c #737385",
"F. c #7D7F9A",
"G. c #83838B",
"H. c #868690",
"J. c #8B8B94",
"K. c #88879D",
"L. c #91919C",
"P. c #A58C8D",
"I. c #9696A1",
"U. c #9999A4",
"Y. c #9E9EAA",
"T. c #A0A0AD",
"R. c #A9A9B6",
"E. c #A8A8B5",
"W. c #C8878A",
"Q. c #D58084",
"!. c #D09B9D",
"~. c #C1A58B",
"^. c #E5DDDD",
"/. c #EFE4E4",
"(. c #F1E7E7",
"). c #F6EBEB",
"_. c None",
/* pixels */
"_._._._._._._._._._._._._._._._._._._._._._._._._._._._._._._._._._._._._._._._._._._._._._._._._._.",
"_._._._._._._._._._._._._._._._._._._._._._._._._._._._._._._._._._._._._._._._._._._._._._._._._._.",
"_._._._._._._._._._._._._._._._._._._._._._._._._._._._._._._._._._._._._._._._._._._._._._._._._._.",
"_._._._._._._._._._._._._._._._._._._._._._._._._._._._._._._._._._._._._._._._._._._._._._._._._._.",
"_._._._._._._._._._._._._._._._._._._._._._._._._._._._._._._._._._._._._._._._._._._._._._._._._._.",
"_._._._._._._._._._._._._._._._._._._._._._._._._._._._._._._._._._._._._._._._._._._._._._._._._._.",
"_._._._._._._._._._._._._._._._._._._._._._._._._._.6 _._._._._._._._._._._._._._._._._._._._._._._.",
"_._._._._._._._._._._._._._._._._._._._._._._._._.- ; ; _._._._._._._._._._._._._._._._._._._._._._.",
"_._._._._._._._._._._._._._._._._._._._._._._._._.-     _._._._._._._._._._._._._._._._._._._._._._.",
"_._._._._._._._._._._._._._._._._._._._._._._._._._.%.P.Q._._._._._._._._._._._._._._._._._._._._._.",
"_._._._._._._._._._._._._._._._._._._._._._._._._._._.%.5.y._.k r.y._._._._._._._._._._._._._._._._.",
"_._._._._._._._._._._._._._._._._._._._._._._._._._.@   * 6.5.u 8.e._._._._._._._._._._._._._._._._.",
"_._._._._._._._._._._._._._._._._._._._._._._._._._., h 8.^.W.4.q.i._._._._._._._._._._._._._._._._.",
"_._._._._._._._._._._._._._._._._._._._._._._._._._.l s.w.(.).W.!.(._._._._._._._._._._._._._._._._.",
"_._._._._._._._._._._._._._._._._._._._._._._._._._.  o 4.2.6.7.1.<._._._._._._._._._._._._._._._._.",
"_._._._._._._._._._._._._._._._._._._._._._._._._._.0 z g.u.3.3.0.9._._._._._._._._._._._._._._._._.",
"_._._._._._._._._._._._._._._._._._._._._._._._._.O.A.n.< k.g.t.j _._._._._._._._._._._._._._._._._.",
"_._._._._._._._._._._._._._._._._._._._._._.P P 1 ] C.B.| &.p.x S _._._._._._._._._._._._._._._._._.",
"_._._._._._._._._._._._._._._._._._._._._._.P P P f L n.B.n     o.V._._._._._._._._._._._._._._._._.",
"_._._._._._._._._._._._._._._._._._._._.P P P P P s r [ } V.+.9 ) C.B._._._._._._._._._._._._._._._.",
"_._._._._._._._._._._._._._._._._._._._.U P P P s : Y C.b...Z.K L C.m._._._._._._._._._._._._._._._.",
"_._._._._._._._._._._._._._._._._._._._.P P g i r K  .n.c.m.} A | V.} _._._._._._._._._._._._._._._.",
"_._._._._._._._._._._._._._._._._._._.U P P 8 + `  .} | B.B.e X.C.m.Y P _._._._._._._._._._._._._._.",
"_._._._._._._._._._._._._._._._._._._.I P u 8 _._.| O.O.V.b.e H X.{ g I _._._._._._._._._._._._._._.",
"_._._._._._._._._._._._._._._._._._._.P f 8 # _._._.! T T n.A 2 $   i I I _._._._._._._._._._._._._.",
"_._._._._._._._._._._._._._._._._._._.P - - X   _._.F.K.D.Y 0 2 >.S.@ a a , _._._._._._._._._._._._.",
"_._._._._._._._._._._._._._._._._._._.P i X . p f.~.G.( g w 0 =.G.D.  8 &     _._._._._._._._._._._.",
"_._._._._._._._._._._._._._._._._._._._.s o   h.l.j.d.v E v.b.v.x.^ [ :   b a.f._._._._._._._._._._.",
"_._._._._._._._._._._._._._._._._._._._.r F N #.c @.-.;.C.B.C.X.` N.Z._._._.l.l.g._._._._._._._._._.",
"_._._._._._._._._._._._._._._._._._.G G D 0 H S _ x._ z.B.B.N.Z 4 } m.B._._._._._._._._._._._._._._.",
"_._._._._._._._._._._._._._._._./ F M 3 q J B.V.V.V.V.B.B.B...C   w | b._._._._._._._._._._._._._._.",
"_._._._._._._._._._._._._._.G M m 0 3 _._.N.B.B.B.B.B.B.B.B.c.C o 5 V | _._._._._._._._._._._._._._.",
"_._._._._._._._._._._.G G F 0 0 _._._._._.B.N.N.Z.B.N.B.B.n.c.C - r 7 H c._._._._._._._._._._._._._.",
"_._._._._._._./ G D D m 2 _._._._._._._.Z.c.N.N.N.B.B.B.B.} } C % y y   V _._._._._._._._._._._._._.",
"_._._.F G G G R m 0 _._._._._._._._._._.' W ) } n.n.N.N.| }  .A O y y r # _._._._._._._._._._._._._.",
"_._._._.3 3 0 2 _._._._._._._._._._._._._.o . V ) } | b.| | W t 9 y y y r _._._._._._._._._._._._._.",
"_._._._._._._._._._._._._._._._._._._._._.# r o % J | ' t t o 7 d r r % o _._._._._._._._._._._._._.",
"_._._._._._._._._._._._._._._._._._._._.# X 9 y 7 o w ) o   9 r 5 . X . # _._._._._._._._._._._._._.",
"_._._._._._._._._._._._._._._._._._._._.  - o r y y 5   # 6       - . X _._._._._._._._._._._._._._.",
"_._._._._._._._._._._._._._._._._._._._.s   # % # % % $ _._.S.:.    = _._._._._._._._._._._._._._._.",
"_._._._._._._._._._._._._._._._._._._._.U.*.    X . _._._._.U.L.G.$._._._._._._._._._._._._._._._._.",
"_._._._._._._._._._._._._._._._._._._._.R.J.S._._._._._._.T.R.U.H._._._._._._._._._._._._._._._._._.",
"_._._._._._._._._._._._._._._._._._._._.R.G.L._._._._._._.E.T.U.G._._._._._._._._._._._._._._._._._.",
"_._._._._._._._._._._._._._._._._._._._.Y.J.U._._._._._._.I.J.U.H._._._._._._._._._._._._._._._._._.",
"_._._._._._._._._._._._._._._._._._._._.J.G._._._._._._._.G.U._._._._._._._._._._._._._._._._._._._.",
"_._._._._._._._._._._._._._._._._._._._.L.  _._._._._._._.L.,.G._._._._._._._._._._._._._._._._._._.",
"_._._._._._._._._._._._._._._._._._._.:.R.,._._._._._._.:.$.*.I.L._._._._._._._._._._._._._._._._._.",
"_._._._._._._._._._._._._._._._._._._._._._._._._._._._._._._._._._._._._._._._._._._._._._._._._._.",
"_._._._._._._._._._._._._._._._._._._._._._._._._._._._._._._._._._._._._._._._._._._._._._._._._._.",
"_._._._._._._._._._._._._._._._._._._._._._._._._._._._._._._._._._._._._._._._._._._._._._._._._._."
};
