/* XPM */
static char *result[] = {
/* columns rows colors chars-per-pixel */
"50 50 7 1 ",
"  c #550F0A",
". c #572B10",
"X c #803520",
"o c #EF692F",
"O c #AD5B40",
"+ c #E3936B",
"@ c None",
/* pixels */
"@@@@@@@@@@@@@@@@@@@@@@@@@@@@@@@@@@@@@@@@@@@@@@@@@@",
"@@@@@@@@@@@@@@@@@@@@@@@@@@@@@@@@@@@@@@@@@@@@@@@@@@",
"@@@@@@@@@@@@@@@@@@@@@@@@@@@@@@@@@@@@@@@@@@@@@@@@@@",
"@@@@@@@@@@@@@@@@@@@@@@@@@@@@@@@@@@@@@@@@@@@@@@@@@@",
"@@@@@@@@@@@@@@@@@@@@@@@@@@@@@@@@@@@@@@@@@@@@@@@@@@",
"@@@@@@@@@@@@@@@@@@@@@@@@@@@@@@@@@@@@@@@@@@@@@@@@@@",
"@@@@@@@@@@@@@@@@@@@@@@@@@@@@@@@@@@@@@@@@@@@@@@@@@@",
"@@@@@@@@@@@@@@@@@@@@@@@@@@@@@@@@@@@@@@@@@@@@@@@@@@",
"@@@@@@@@@@@@@@@@@@@@@@@@@@@@@@@@@@@@@@@@@@@@@@@@@@",
"@@@@@@@@@@@@@@@@@@@@@@@@@@@@@@@@@@@@@@@@@@@@@@@@@@",
"@@@@@@@@@@@@@@@@@@@@@@@@@@@@@@@@@@@@@@@@@@@@@@@@@@",
"@@@@@@@@@@@@@@@@@@@@@@@@@@@@@@@@@@@@@@@@@@@@@@@@@@",
"@@@@@@@@@@@@@@@@@@@@@@@@@@@@@@@@@@@@@@@@@@@@@@@@@@",
"@@@@@@@@@@@@@@@@@@@@@@@@@@@@@@@@@@@@@@@@@@@@@@@@@@",
"@@@@@@@@@@@@@@@@@@@@@@@@@@@@@@@@@@@@@@@@@@@@@@@@@@",
"@@@@@@@@@@@@@@@@@@@@@@@@@@@@@@@@@@@@@@@@@@@@@@@@@@",
"@@@@@@@@@@@@@@@@@@@@@@@@@@@@@@@@@@@@@@@@@@@@@@@@@@",
"@@@@@@@@@@@@@@@@@@@@@@@@@@@@@@@@@@@@@@@@@@@@@@@@@@",
"@@@@@@@@@@@@@@@@@@@@@@@@@@@@@@@@@@@@@@@@@@@@@@@@@@",
"@@@@@@@@@@@@@@@@@@@@+++@@@@@@@@@@@@@@@@@@@@@@@@@@@",
"@@@@@@@@@@@@@@@@@@@O++++@@@@@@@@@@@@@@@@@@@@@@@@@@",
"@@@@@@@@@@@@@@@@@@@O++++@@@@@@@@@@@@@@@@@@@@@@@@@@",
"@@@@@@@@@@@@@@@@@@@+++++@@@@@@@@@@@@@@@@@@@@@@@@@@",
"@@@@@@@@@@@@@@@@@@@O  + @@@@@@@@@@@@@@@@@@@@@@@@@@",
"@@@@@@@@@@@@@@@@@@@O++++@@@@@@@@@@@@@@@@@@@@@@@@@@",
"@@@@@@@@@@@@@@@@@@@ OOO @@@@@@@@@@@@@@@@@@@@@@@@@@",
"@@@@@@@@@@@@@@@@@@ oOOO+ o@@@@@@@@@@@@@@@@@@@@@@@@",
"@@@@@@@@@@@@@@@@@+  ++++  @@@@@@@@@@@@@@@@@@@@@@@@",
"@@@@@@@@@@@@@@@@+ o+++++X o@@@@@@@@@@@@@@@@@@@@@@@",
"@@@@@@@@@@@@@@@@+  +++++X  @@@@@@@@@@@@@@@@@@@@@@@",
"@@@@@@@@@@@@@@@@++X o++ oXXX@@@@@@@@@@@@@@@@@@@@@@",
"@@@@@@@@@@@@@@@@++X   o  XXX@@@@@@@@@@@@@@@@@@@@@@",
"@@@@@@@@@@@@@@@@++XXo  XX.XX@@@@@@@@@@@@@@@@@@@@@@",
"@@@@@@@@@@@@@@@@++XXoXXX...XX@@@@@@@@@@@@@@@@@@@@@",
"@@@@@@@@@@@@@@@@++XoXXXX..++X@@@@@@@@@@@@@@@@@@@@@",
"@@@@@@@@@@@@@@@@+++.......++X@@@@@@@@@@@@@@@@@@@@@",
"@@@@@@@@@@@@@@@@++XXXXXX++OX@@@@@@@@@@@@@@@@@@@@@@",
"@@@@@@@@@@@@@@   oo...X+++Xo  @@@@@@@@@@@@@@@@@@@@",
"@@@@@@@@@@@@@      ooOOOOoo   @@@@@@@@@@@@@@@@@@@@",
"@@@@@@@@@@@@@        oooo     @@@@@@@@@@@@@@@@@@@@",
"@@@@@@@@@@@@@@  ooo      oo  @@@@@@@@@@@@@@@@@@@@@",
"@@@@@@@@@@@@@@@ ooooo   oooo@@@@@@@@@@@@@@@@@@@@@@",
"@@@@@@@@@@@@@@@@@@oooo   oo@@@@@@@@@@@@@@@@@@@@@@@",
"@@@@@@@@@@@@@@@@@@@@@@@  @@@@@@@@@@@@@@@@@@@@@@@@@",
"@@@@@@@@@@@@@@@@@@@@@@@@@@@@@@@@@@@@@@@@@@@@@@@@@@",
"@@@@@@@@@@@@@@@@@@@@@@@@@@@@@@@@@@@@@@@@@@@@@@@@@@",
"@@@@@@@@@@@@@@@@@@@@@@@@@@@@@@@@@@@@@@@@@@@@@@@@@@",
"@@@@@@@@@@@@@@@@@@@@@@@@@@@@@@@@@@@@@@@@@@@@@@@@@@",
"@@@@@@@@@@@@@@@@@@@@@@@@@@@@@@@@@@@@@@@@@@@@@@@@@@",
"@@@@@@@@@@@@@@@@@@@@@@@@@@@@@@@@@@@@@@@@@@@@@@@@@@"
};
