/* XPM */
static char *result[] = {
/* columns rows colors chars-per-pixel */
"50 50 7 1 ",
"  c #550F0A",
". c #572B10",
"X c #803520",
"o c #EF692F",
"O c #AD5B40",
"+ c #E3936B",
"@ c None",
/* pixels */
"@@@@@@@@@@@@@@@@@@@@@@@@@@@@@@@@@@@@@@@@@@@@@@@@@@",
"@@@@@@@@@@@@@@@@@@@@@@@@@@@@@@@@@@@@@@@@@@@@@@@@@@",
"@@@@@@@@@@@@@@@@@@@@@@@@@@@@@@@@@@@@@@@@@@@@@@@@@@",
"@@@@@@@@@@@@@@@@@@@@@@@@@@@@@@@@@@@@@@@@@@@@@@@@@@",
"@@@@@@@@@@@@@@@@@@@@@@@@@@@@@@@@@@@@@@@@@@@@@@@@@@",
"@@@@@@@@@@@@@@@@@@@@@@@@@@@@@@@@@@@@@@@@@@@@@@@@@@",
"@@@@@@@@@@@@@@@@@@@@@@@@@@@@@@@@@@@@@@@@@@@@@@@@@@",
"@@@@@@@@@@@@@@@@@@@@@@@@@@@@@@@@@@@@@@@@@@@@@@@@@@",
"@@@@@@@@@@@@@@@@@@@@@@@@@@@@@@@@@@@@@@@@@@@@@@@@@@",
"@@@@@@@@@@@@@@@@@@@@@@@@@@@@@@@@@@@@@@@@@@@@@@@@@@",
"@@@@@@@@@@@@@@@@@@@@@@@@@@@@@@@@@@@@@@@@@@@@@@@@@@",
"@@@@@@@@@@@@@@@@@@@@@@@@@@@@@@@@@@@@@@@@@@@@@@@@@@",
"@@@@@@@@@@@@@@@@@@@@@@@@@@@@@@@@@@@@@@@@@@@@@@@@@@",
"@@@@@@@@@@@@@@@@@@@@@@@@@@@@@@@@@@@@@@@@@@@@@@@@@@",
"@@@@@@@@@@@@@@@@@@@@@@@@@@@@@@@@@@@@@@@@@@@@@@@@@@",
"@@@@@@@@@@@@@@@@@@@@@@@@@@@@@@@@@@@@@@@@@@@@@@@@@@",
"@@@@@@@@@@@@@@@@@@@@@@@@@@@@@@@@@++@@@@@@@@@@@@@@@",
"@@@@@@@@@@@@@@@@@@@@@@@@@@@@@@@@@OO@@@@@@@@@@@@@@@",
"@@@@@@@@@@@@@@@@@@@@@@@@@@+++@@@@@XX@@@@@@@@@@@@@@",
"@@@@@@@@@@@@@@@@@@@@@@@@@+++OO@@@@XX@@@@@@@@@@@@@@",
"@@@@@@@@@@@@@@@@@@@@@@@@@  ++O@@@@.XX@@@@@@@@@@@@@",
"@@@@@@@@@@@@@@@@@@@@@@@@@+++OO o@@.XX@@@@@@@@@@@@@",
"@@@@@@@@@@@@@@@@@@@@@@@@@+++OO  @++..@@@@@@@@@@@@@",
"@@@@@@@@@@@@@@@@@@@@@@@@ OOOOXX o++O@@@@@@@@@@@@@@",
"@@@@@@@@@@@@@@@@@@@@@@@@  oXXXX  +O@@@@@@@@@@@@@@@",
"@@@@@@@@@@@@@@@@@@@@@@@@X  XX o oO@@@@@@@@@@@@@@@@",
"@@@@@@@@@@@@@@@@++@@@@@XXXX o    @@@@@@@@@@@@@@@@@",
"@@@@@@@@@@@@@@@@OO+@@@XXXX.  XXXX@@@@@@@@@@@@@@@@@",
"@@@@@@@@@@@@@@@@@O++XXXX...XXXXX@@@@@@@@@@@@@@@@@@",
"@@@@@@@@@@@@@@@@@@O+X......XXXXX@@@@@@@@@@@@@@@@@@",
"@@@@@@@@@@@@@@@@@@@O.....XXXXXX@@@@@@@@@@@@@@@@@@@",
"@@@@@@@@@@@@@@@@@@@@@@O.....XXX@@@@@@@@@@@@@@@@@@@",
"@@@@@@@@@@@@@@@@@@@@oo.OOOOO...@@@@@@@@@@@@@@@@@@@",
"@@@@@@@@@@@@@@@@@@@  oX.....OO@@@@@@@@@@@@@@@@@@@@",
"@@@@@@@@@@@@@@@@@@   oXXXXXX...@@@@@@@@@@@@@@@@@@@",
"@@@@@@@@@@@@@@@@@@    oXXXXXooo@@@@@@@@@@@@@@@@@@@",
"@@@@@@@@@@@@@@@@@@     ooooo   @@@@@@@@@@@@@@@@@@@",
"@@@@@@@@@@@@@@@@@@@            @@@@@@@@@@@@@@@@@@@",
"@@@@@@@@@@@@@@@@@@@@         .@@@@@@@@@@@@@@@@@@@@",
"@@@@@@@@@@@@@@@@@@@@@@@@   @@@@@@@@@@@@@@@@@@@@@@@",
"@@@@@@@@@@@@@@@@@@@@@@@@@@@@@@@@@@@@@@@@@@@@@@@@@@",
"@@@@@@@@@@@@@@@@@@@@@@@@@@@@@@@@@@@@@@@@@@@@@@@@@@",
"@@@@@@@@@@@@@@@@@@@@@@@@@@@@@@@@@@@@@@@@@@@@@@@@@@",
"@@@@@@@@@@@@@@@@@@@@@@@@@@@@@@@@@@@@@@@@@@@@@@@@@@",
"@@@@@@@@@@@@@@@@@@@@@@@@@@@@@@@@@@@@@@@@@@@@@@@@@@",
"@@@@@@@@@@@@@@@@@@@@@@@@@@@@@@@@@@@@@@@@@@@@@@@@@@",
"@@@@@@@@@@@@@@@@@@@@@@@@@@@@@@@@@@@@@@@@@@@@@@@@@@",
"@@@@@@@@@@@@@@@@@@@@@@@@@@@@@@@@@@@@@@@@@@@@@@@@@@",
"@@@@@@@@@@@@@@@@@@@@@@@@@@@@@@@@@@@@@@@@@@@@@@@@@@",
"@@@@@@@@@@@@@@@@@@@@@@@@@@@@@@@@@@@@@@@@@@@@@@@@@@"
};
