/* XPM */
static char *result[] = {
/* columns rows colors chars-per-pixel */
"50 50 7 1 ",
"  c #550F0A",
". c #572B10",
"X c #803520",
"o c #EF692F",
"O c #AD5B40",
"+ c #E3936B",
"@ c None",
/* pixels */
"@@@@@@@@@@@@@@@@@@@@@@@@@@@@@@@@@@@@@@@@@@@@@@@@@@",
"@@@@@@@@@@@@@@@@@@@@@@@@@@@@@@@@@@@@@@@@@@@@@@@@@@",
"@@@@@@@@@@@@@@@@@@@@@@@@@@@@@@@@@@@@@@@@@@@@@@@@@@",
"@@@@@@@@@@@@@@@@@@@@@@@@@@@@@@@@@@@@@@@@@@@@@@@@@@",
"@@@@@@@@@@@@@@@@@@@@@@@@@@@@@@@@@@@@@@@@@@@@@@@@@@",
"@@@@@@@@@@@@@@@@@@@@@@@@@@@@@@@@@@@@@@@@@@@@@@@@@@",
"@@@@@@@@@@@@@@@@@@@@@@@@@@@@@@@@@@@@@@@@@@@@@@@@@@",
"@@@@@@@@@@@@@@@@@@@@@@@@@@@@@@@@@@@@@@@@@@@@@@@@@@",
"@@@@@@@@@@@@@@@@@@@@@@@@@@@@@@@@@@@@@@@@@@@@@@@@@@",
"@@@@@@@@@@@@@@@@@@@@+++@@@@@@@@@@@@@@@@@@@@@@@@@@@",
"@@@@@@@@@@@@@@@@@@@O++++@@@@@@@@@@@@@@@@@@@@@@@@@@",
"@@@@@@@@@@@@@@@@@@@O  + @@@@@@@@@@@@@@@@@@@@@@@@@@",
"@@@@@@@@@@@@@@@@@@@+++++@@@@@@@@@@@@@@@@@@@@@@@@@@",
"@@@@@@@@@@@@@@@@@@@O++++@@@@@@@@@@@@@@@@@@@@@@@@@@",
"@@@@@@@@@@@@@@@@@@@OOOOO@@@@@@@@@@@@@@@@@@@@@@@@@@",
"@@@@@@@@@@@@@@@@@@@ OOO @@@@@@@@@@@@@@@@@@@@@@@@@@",
"@@@@@@@@@@@@@@@@@@ o++++ o@@@@@@@@@@@@@@@@@@@@@@@@",
"@@@@@@@@@@@@@@@@@+  ++++  @@@@@@@@@@@@@@@@@@@@@@@@",
"@@@@@@@@@@@@@@@@+ o+++++X o@@@@@@@@@@@@@@@@@@@@@@@",
"@@@@@@@@@@@@@@@@+   o++ o  @@@@@@@@@@@@@@@@@@@@@@@",
"@@@@@@@@@@@@@@@@++X   o  XXX@@@@+++@@@@@@@@@@@@@@@",
"@@@@@@@@@@@@@@@@++XX+  XXXXX@@@@+++@@@@@@@@@@@@@@@",
"@@@@@@@@@@@@++@@@+XXoXXXXXXX@@@++OO@@@@@@@@@@@@@@@",
"@@@@@@@@@@@O++@@@+XXoXXXXX.XX@++OO@@@@@@@@@@@@@@@@",
"@@@@@@@@@@@@OO.XX+XoXXXXX..XX++OO@@@@@@@@@@@@@@@@@",
"@@@@@@@@@@@@@...X+XoXXXXX.@.++OO@@@@@@@@@@@@@@@@@@",
"@@@@@@@@@@@@@@..OOoXXXX...@@OOO@@@@@@@@@@@@@@@@@@@",
"@@@@@@@@@@@@@@@@Oo.......@@@@@@@@@@@@@@@@@@@@@@@@@",
"@@@@@@@@@@@@@@@@@OOO OOOO@@@@@@@@@@@@@@@@@@@@@@@@@",
"@@@@@@@@@@@@@@@@@o........@@@@@@@@@@@@@@@@@@@@@@@@",
"@@@@@@@@@@@@@@@@@oXXXXXXXX@@@@@@@@@@@@@@@@@@@@@@@@",
"@@@@@@@@@@@@@@@@@ oooooooo@@@@@@@@@@@@@@@@@@@@@@@@",
"@@@@@@@@@@@@@@@@@          @@@@@@@@@@@@@@@@@@@@@@@",
"@@@@@@@@@@@@@@@@@XX     XX @@@@@@@@@@@@@@@@@@@@@@@",
"@@@@@@@@@@@@@@@@@XX     XX @@@@@@@@@@@@@@@@@@@@@@@",
"@@@@@@@@@@@@@@@@@X   @@  X @@@@@@@@@@@@@@@@@@@@@@@",
"@@@@@@@@@@@@@@@@@   @@@    @@@@@@@@@@@@@@@@@@@@@@@",
"@@@@@@@@@@@@@@@@@   @@@@  @@@@@@@@@@@@@@@@@@@@@@@@",
"@@@@@@@@@@@@@@@@@ oo@@@@oo@@@@@@@@@@@@@@@@@@@@@@@@",
"@@@@@@@@@@@@@@@@@@ooo@@@oo@@@@@@@@@@@@@@@@@@@@@@@@",
"@@@@@@@@@@@@@@@@@@@oo@@@oo@@@@@@@@@@@@@@@@@@@@@@@@",
"@@@@@@@@@@@@@@@@@@   @@@   @@@@@@@@@@@@@@@@@@@@@@@",
"@@@@@@@@@@@@@@@@@    @@@    @@@@@@@@@@@@@@@@@@@@@@",
"@@@@@@@@@@@@@@@@@@@@@@@@@@@@@@@@@@@@@@@@@@@@@@@@@@",
"@@@@@@@@@@@@@@@@@@@@@@@@@@@@@@@@@@@@@@@@@@@@@@@@@@",
"@@@@@@@@@@@@@@@@@@@@@@@@@@@@@@@@@@@@@@@@@@@@@@@@@@",
"@@@@@@@@@@@@@@@@@@@@@@@@@@@@@@@@@@@@@@@@@@@@@@@@@@",
"@@@@@@@@@@@@@@@@@@@@@@@@@@@@@@@@@@@@@@@@@@@@@@@@@@",
"@@@@@@@@@@@@@@@@@@@@@@@@@@@@@@@@@@@@@@@@@@@@@@@@@@",
"@@@@@@@@@@@@@@@@@@@@@@@@@@@@@@@@@@@@@@@@@@@@@@@@@@"
};
