/* XPM */
static char *_8c00a94a8324ad8fc9b5d794d42c7f30LMDaAwxaUL0WKLA[] = {
/* columns rows colors chars-per-pixel */
"50 50 112 2 ",
"   c #150000",
".  c #190003",
"X  c #19001D",
"o  c #250001",
"O  c #25000D",
"+  c #240014",
"@  c #26001C",
"#  c #160025",
"$  c #1D0029",
"%  c #260024",
"&  c #26002D",
"*  c #260331",
"=  c #260C34",
"-  c #261336",
";  c #281336",
":  c #261738",
">  c #261C3B",
",  c #291F3C",
"<  c #26223E",
"1  c #1D3149",
"2  c #262641",
"3  c #262B44",
"4  c #282B44",
"5  c #263047",
"6  c #26334A",
"7  c #28334A",
"8  c #26394E",
"9  c #283A4F",
"0  c #263D52",
"q  c #1B4A5E",
"w  c #264256",
"e  c #294256",
"r  c #264659",
"t  c #284458",
"y  c #264A5D",
"u  c #2C4A5C",
"i  c #1C4D60",
"p  c #264E61",
"a  c #2A4F61",
"s  c #275365",
"d  c #275668",
"f  c #275B6C",
"g  c #315969",
"h  c #275F70",
"j  c #1A6072",
"k  c #176B7D",
"l  c #276374",
"z  c #276475",
"x  c #276576",
"c  c #2A6273",
"v  c #296576",
"b  c #276778",
"n  c #286778",
"m  c #21697A",
"M  c #276979",
"N  c #27697A",
"B  c #276A7B",
"V  c #276B7C",
"C  c #276C7D",
"Z  c #256F7F",
"A  c #376676",
"S  c #3E6574",
"D  c #356978",
"F  c #376B7B",
"G  c #1D7081",
"H  c #276F80",
"J  c #277181",
"K  c #277283",
"L  c #277484",
"P  c #287586",
"I  c #287686",
"U  c #277F8F",
"Y  c #287989",
"T  c #28798A",
"R  c #287B8B",
"E  c #287D8E",
"W  c #287E8E",
"Q  c #287F90",
"!  c #407C8A",
"~  c #288090",
"^  c #288192",
"/  c #288293",
"(  c #288495",
")  c #288595",
"_  c #288797",
"`  c #288999",
"'  c #288B9C",
"]  c #288C9C",
"[  c #288E9F",
"{  c #288F9F",
"}  c #2993A4",
"|  c #2994A4",
" . c #2997A8",
".. c #279FAF",
"X. c #2998A8",
"o. c #299BAB",
"O. c #299BAC",
"+. c #299CAC",
"@. c #299DAE",
"#. c #2A9FB0",
"$. c #29A2B2",
"%. c #29A4B5",
"&. c #2AA9BA",
"*. c #2AACBD",
"=. c #35A6B6",
"-. c #30AEBF",
";. c #4A8B99",
":. c #4995A3",
">. c #5397A4",
",. c #41A5B5",
"<. c #5BABB8",
"1. c #65ADB9",
/* pixels */
"3 3 2 6 r > 3 3 3 3 3 < y w 2 3 3 t 6 2 3 3 3 3 y 3 3 3 r 6 2 3 3 3 2 3 3 3 3 2 8 t 2 2 3 3 2 0 w 2 ",
"3 5 * c E 6 2 3 3 3 6 + T T % 3 3 r 6 2 3 6 3 3 y 2 3 < t 0 2 3 3 3 3 3 3 3 3 2 t 0 2 3 2 3 2 0 r 2 ",
"3 < p p 8 f 8 < 5 5 > 0 / ) w > 6 r 5 3 3 3 2 0 w 2 3 2 8 r 2 3 3 3 3 3 3 3 2 3 y 2 3 3 3 6 2 8 r 2 ",
"3 s r > < 3 s 0 < > t f 5 > f 0 = y 6 < 3 3 > 0 0 2 3 3 3 r 3 6 3 3 3 3 3 3 2 0 w 2 3 3 2 2 2 8 r 3 ",
"s w > 3 3 2 3 f 8 p s < 2 3 2 p x T 8 > 5 3 2 t 8 < 3 5 > f 6 % < < 3 3 3 6 2 r 6 2 3 3 3 3 2 6 y 2 ",
"6 2 3 3 3 6 * p ` s - 3 3 3 3 * X.| + 6 3 3 3 p 6 3 3 6 % Z ..v y 0 5 2 2 @ 9 l < 3 2 3 3 3 2 6 y 3 ",
"w 2 3 3 3 5 - y I > 3 3 3 3 5 - E ] r * 8 - p b > 3 3 5 % / -.x y f d d s l ` f - 3 3 3 3 3 3 2 r 6 ",
"y w > 6 3 5 = s v > 3 3 3 3 > y s - f x : % ] ) & 5 5 - p f D - - > 2 8 0 Z ,.u > 2 3 3 3 3 3 2 r 6 ",
"r I & < 6 6 = s l > 3 3 3 3 2 p 8 < = f U M U ~ 3 3 < 0 y - y 8 3 3 3 2 < + ! a : 3 3 3 3 3 3 2 r 6 ",
"5 ] K 5 > 3 = f b > 3 3 5 2 0 y > 6 5 & ( K o y w > 3 s 3 3 y < 3 3 3 3 5 < k t < 3 3 3 3 3 3 < r 8 ",
"8 n s x s 8 @ h b * 2 2 5 * f 0 < 3 3 - L f - 5 s > f 8 < 3 y 3 3 3 3 3 3 < p 8 2 3 3 3 3 3 3 2 w 0 ",
"w f % 3 w x s U ) 5 8 8 % l K = 3 3 3 < f 0 < < y ` f * 6 3 3 < 3 3 3 3 3 3 r 5 3 3 3 3 3 2 6 : f y ",
"y s > 3 2 & L $.Z d f p ) &.r > 3 3 3 3 f 6 < < 8 { 3 3 3 w 9 5 2 3 3 3 2 3 y 3 2 3 3 3 3 3 8 @ I l ",
"y p > 5 5 = d T % > 3 * f ` 3 2 3 3 3 < f 6 3 3 8 d > 3 3 y 0 w 2 3 3 3 2 6 t 3 3 3 3 3 4 2 * 0 / r ",
"L y - 6 3 > p h < 5 3 3 > n 8 < 3 3 3 < x 0 < 3 8 w 2 3 r 9 3 s 3 5 3 3 2 0 p 2 3 3 3 < 2 0 f ) } 8 ",
"` 0 < 3 3 2 t t > 3 3 3 2 f 8 2 3 3 6 < ` w < 3 w w > 2 s 3 < f 3 * 5 5 < w p 2 3 2 < 0 d d s 0 / f ",
"l 0 < 3 3 2 r 8 2 3 3 3 > y 0 2 3 5 * w +.x o < r 3 = x f > = l ) w 3 3 % d h * 2 0 d s 0 > > * 2 d ",
"f r > 6 3 3 r 6 2 3 3 3 2 0 0 2 3 - d L L } d d l w d / f : > s M y f f 6 / ] 0 s s 8 2 2 3 6 3 6 d ",
"y w < 3 3 3 r 3 3 3 3 3 2 8 r 3 > t n p 3 s f +.X.y 2 w s < 3 r 3 = 3 0 d O.+.d 0 > 2 3 3 3 3 3 2 s ",
"w 0 2 3 < 8 d > 3 3 3 3 3 3 y : p s = - 3 > o Z f = - y f < 3 r 8 3 5 > * n r % 2 3 3 3 3 3 3 3 < w ",
"0 0 3 2 & / / @ 6 3 3 3 6 = l R r > 3 5 3 5 5 y < 5 > r l * * w 6 2 3 3 6 y 3 3 3 2 3 3 3 3 3 3 < 3 ",
"y r & 0 d ` [ 2 3 3 3 2 6 & l R % 6 3 3 3 < 9 w 3 6 - r | T Z T 2 3 6 < 8 y 3 3 3 3 3 2 3 3 3 3 3 3 ",
"r M f d 0 % p r > 3 3 3 3 > s p > 5 3 3 3 < w 0 < 6 * f T w d ) 8 > 6 > w s > 3 3 3 3 3 3 3 2 3 3 < ",
"3 / p * 3 3 3 y 6 2 3 3 3 < r w < 3 3 3 3 3 t 8 2 3 3 s 2 = * d r > 6 * f Z * 5 3 3 3 3 3 3 3 3 < 8 ",
"3 f 3 2 3 5 > t p > 3 3 3 3 e 8 2 3 3 3 2 4 y 7 3 < 8 y 2 5 2 y w < 5 * ' ' % 5 3 3 3 3 3 3 3 2 3 d ",
"4 f 0 2 5 3 5 = K p & 3 6 3 r 8 2 3 3 3 < e v 2 3 3 y t > 5 2 t r 2 2 p b K 0 > 3 3 3 3 3 3 6 = h s ",
"2 f 0 > 3 3 8 @ R #.s 2 : % f 8 3 3 3 6 ; q k , 3 % s t > 5 > w p * r y % 8 r 2 3 3 3 3 3 5 * s m : ",
"= K V % 6 3 3 > H I s f d M / > 3 3 3 3 X :.:.  4 x E > 2 5 2 0 d t p 2 5 3 y 5 2 3 3 3 5 > 8 T 0 > ",
"> K / 6 2 3 2 0 0 % > 2 h  .I > 3 3 2 4 i ;.<.G h ..| % 6 5 2 5 } Q * 3 5 2 0 0 2 3 3 3 3 & L l % 6 ",
"8 r - s 8 2 3 r 8 3 6 3 * 8 Q 8 3 : 0 d r   j b = < K 0 > 6 = d O.v * 5 3 3 2 y 3 3 3 3 - s ~ > 5 3 ",
"w 0 < 3 s 3 6 p 2 2 3 2 6 = L r % s s 6 < 2 s 9 2 < r y 2 2 0 d M l : 3 3 3 2 0 0 2 3 3 2 ~ 0 > 6 3 ",
"r 3 3 2 3 K ] h * 6 3 3 5 > y L Q b * 3 6 > s s < 2 0 0 & t d - 0 r 2 3 3 3 3 3 y 3 6 * x x * 5 3 3 ",
"r < 3 6 & b %.K & 6 3 3 3 6 & / X.0 - 6 5 * x f = 3 6 y l s < < 0 w 2 3 3 3 3 3 9 t & y L < 3 3 3 3 ",
"6 3 3 3 : f I y r > 6 3 3 > r n v s > 4 6 % T | 6 > < X.( % 5 2 8 r 2 3 3 3 3 < 6 t 2 E y > 3 3 3 3 ",
"3 3 3 3 < y s & s 8 > < & r s - > r 5 6 3 3 f v s % y %.v & 6 2 6 t 3 3 3 3 3 3 > f =.T & 3 3 3 3 3 ",
"3 3 3 3 < 8 w < 3 f r 6 M s > 5 2 y 0 % * 5 w - s 3 s Z n > 3 2 5 r 3 3 3 3 3 7 # S 1.6 - 5 3 3 2 3 ",
"3 3 3 3 3 e w < 3 < Z ..Z & 7 3 3 5 Z C K T 0 > y y 7 < f 3 3 3 3 r 3 3 3 3 3 3 - g D $ 6 3 3 3 3 3 ",
"3 3 3 6 % d f * 6 > 8 ` 0 - 6 3 6 = / K s I 3 - y l > 3 l w 2 3 3 y 6 3 3 3 3 3 < s q > 3 3 3 3 3 3 ",
"w 2 3 2 f +.H @ 8 2 2 n 0 > 3 3 > w y % < d 5 > y y < - h r > 3 < s 8 < 3 3 3 3 < y 0 3 3 3 3 3 3 3 ",
"p r % s f T U - 6 6 2 f 0 > 6 6 3 0 8 3 t f > 3 r 0 3 & Z R : 8 > s w 3 3 3 < 3 3 y 6 < 3 3 3 3 3 3 ",
"3 M x w = % d y & & , ;.A % 3 * > s 3 > y f > 3 r 8 < 6 f d w = o I f @ 5 5 6 3 w l > 5 3 3 < 5 2 3 ",
"= f Z & 5 6 > d p f K T M f p p / v - = x f % 6 s 6 > w r % x T s | } t 3 - & O l s = 5 3 3 3 3 3 3 ",
"2 8 y 3 3 5 < 8 $.X.0 $ > 0 0 v *.I o r _ V y - d 3 2 r 0 * v T 8 y h Z x x M ` ( 3 < 5 3 3 3 3 3 3 ",
"2 8 9 > 3 5 < 6 $.x @ 0 3 2 2 % R E s E 0 > y L K & 2 t 6 : f t % 2 = - 5 w T X.x < 3 3 3 3 3 3 3 3 ",
"2 3 K r - 8 > d f f 7 4 3 3 3 6 f % l Z % 8 + _ T * s x 2 2 0 0 2 5 3 5 < 3 o L ..t = 3 3 3 3 3 3 3 ",
"> 0 ) n 3 * < 0 * 8 y < 6 2 > 6 s > 5 s 2 8 % x { p f K 6 2 t t 2 5 3 2 3 5 < ) h p p 3 < 3 3 3 3 2 ",
"2 w 6 > s f V 0 3 2 p q % 7 8 T x & 6 s 5 5 : l r > = 6 y % 2 0 2 3 3 3 5 > w s % < y s 8 > 3 3 3 3 ",
"3 r 8 2 > E } = 3 3 3 >.F q p v f - < M 0 < 3 f 3 3 6 < r v f Z - 3 3 3 3 < y 6 3 5 > 8 s y 3 < 3 3 ",
"3 r 3 3 < 3 Z 3 3 2 3 T g , < 5 e > 0 h 0 , 8 y 3 2 6 = s T s T 0 > 5 3 < 5 y 2 2 3 5 2 2 s s 8 3 3 ",
"8 t < 3 3 3 y 0 < 3 8 1 = 4 < e s 3 s < y 3 0 0 < 3 3 2 y < & t s > 5 3 3 9 w 2 3 3 3 3 3 - 0 w < 3 "
};
