/* XPM */
static char *result[] = {
/* columns rows colors chars-per-pixel */
"30 30 151 2 ",
"   c #002AED",
".  c #1944DA",
"X  c #495BDC",
"o  c #5767DE",
"O  c #6B69DA",
"+  c #5C6EE0",
"@  c #4878ED",
"#  c #5570E4",
"$  c #5B7EEB",
"%  c #4078F0",
"&  c #507EF0",
"*  c #6F7BE0",
"=  c #617CE9",
"-  c #DF6DAD",
";  c #C86FBB",
":  c #CE77BF",
">  c #8264D5",
",  c #A46ECD",
"<  c #A374CF",
"1  c #C577C2",
"2  c #C47EC6",
"3  c #ED75C8",
"4  c #3D90F3",
"5  c #5283EC",
"6  c #5B81EE",
"7  c #5E8CF2",
"8  c #539AF2",
"9  c #7981E1",
"0  c #7689E5",
"q  c #7C93ED",
"w  c #618FF4",
"e  c #7589FF",
"r  c #7596F3",
"t  c #729DF3",
"y  c #7C9CF4",
"u  c #44A4F6",
"i  c #71AFEF",
"p  c #7FA0F7",
"a  c #D782BF",
"s  c #8C85DE",
"d  c #A78DDA",
"f  c #AE9BDE",
"g  c #B293D9",
"h  c #BCA2DD",
"j  c #808DE5",
"k  c #858DE9",
"l  c #8B8BE2",
"z  c #8C9CEF",
"x  c #939AE6",
"c  c #AC90E4",
"v  c #93A0E9",
"b  c #97A8ED",
"n  c #84A0F5",
"m  c #8FA7F3",
"M  c #83A7FF",
"N  c #89A7FF",
"B  c #81ACF9",
"V  c #93A5F1",
"C  c #9CA9F2",
"Z  c #99ABFF",
"A  c #8EB2F3",
"S  c #8EB6FF",
"D  c #91BEF4",
"F  c #9BBEF5",
"G  c #9BB3FB",
"H  c #BAAFE4",
"J  c #B3B5EC",
"K  c #B6BEEF",
"L  c #A4BBF6",
"P  c #CD80C0",
"I  c #D188C3",
"U  c #C292D7",
"Y  c #C598D2",
"T  c #CD9AD0",
"R  c #D4A2CF",
"E  c #DCACD4",
"W  c #E3B4D5",
"Q  c #E9B5D7",
"!  c #CEBAE3",
"~  c #D7B8E6",
"^  c #A4C3F5",
"/  c #AFC1F6",
"(  c #A4C0FF",
")  c #A9C6FF",
"_  c #AACDFF",
"`  c #BBC2F1",
"'  c #BBC8F5",
"]  c #B2C6FA",
"[  c #B2C9FB",
"{  c #BCCFFE",
"}  c #A2D0F1",
"|  c #ABD3F4",
" . c #B7DEF4",
".. c #BAD1FD",
"X. c #BDDDFC",
"o. c #C3C2EE",
"O. c #CEC0E8",
"+. c #CFC9EF",
"@. c #D3C4E7",
"#. c #DECFEA",
"$. c #DFD0E4",
"%. c #DAD2EE",
"&. c #C1C6F1",
"*. c #C4CDF4",
"=. c #CDCAF2",
"-. c #CDC4FF",
";. c #C2CEFD",
":. c #D2C9F5",
">. c #DACDF4",
",. c #D4C9F9",
"<. c #C7D1F5",
"1. c #CAD3F5",
"2. c #CDD9F7",
"3. c #C6D3FB",
"4. c #C2D9FF",
"5. c #CDDAFD",
"6. c #D0D0F1",
"7. c #D8D6F2",
"8. c #D5D9F5",
"9. c #D3DBFD",
"0. c #DBDFF8",
"q. c #E7D8ED",
"w. c #F7DBE8",
"e. c #E6CAFD",
"r. c #E8D3F8",
"t. c #C7E1F6",
"y. c #CDE8F7",
"u. c #C7E5FF",
"i. c #CFE2FD",
"p. c #CDE9FC",
"a. c #D7EBF6",
"s. c #D4E4FF",
"d. c #DDE5FC",
"f. c #D6EBF9",
"g. c #D9EBFD",
"h. c #E7E3F6",
"j. c #EAE2F5",
"k. c #E1E6FD",
"l. c #EAE7FF",
"z. c #E3ECFD",
"x. c #EAEEFD",
"c. c #F5E9F3",
"v. c #F2E8FA",
"b. c #E6F2FE",
"n. c #EBF3FE",
"m. c #ECFCFF",
"M. c #F4F5FD",
"N. c #FCF7FD",
"B. c #F5FBFE",
"V. c #FEFEFF",
"C. c None",
/* pixels */
"C.C.C.C.C.C.C.C.C.C.C.C.C.C.C.C.C.C.C.C.C.C.C.C.C.C.C.C.C.C.",
"C.C.C.C.C.C.C.C.C.C.C.C.C.C.C.C.C.C.C.C.C.C.C.C.C.C.C.C.C.C.",
"C.C.C.C.C.C.C.C.C.C.C.C.C.C.j <.C.C.C.C.C.C.C.C.C.C.C.C.C.C.",
"C.C.C.C.C.C.C.C.C.C.C.C.C.C.K b.C.C.C.C.C.C.C.C.C.C.C.C.C.C.",
"C.C.C.C.C.C.C.C.C.C.C.C.C.C.C.;.. C.C.C.C.C.C.C.C.C.C.C.C.C.",
"C.C.C.C.C.C.C.C.C.C.C.C.; 1 C.+ C.C.C.8.h C C.C.C.C.C.C.C.C.",
"C.C.C.C.C.C.C.q z.x 9.k.-.d C.C.m C.k.V.B.L & C.C.C.C.C.C.C.",
"C.C.C.C.C.C.C.6 V.9.&.V.1.C.C.C...9.V.V.V.V.d.C.C.C.C.C.C.C.",
"C.C.C.C.C.C.C.C.n 5.C.j.N.C.n ' b.V.V.V.V.B.C.C.C.C.C.C.C.C.",
"C.C.C.C.C.C.C.* # @   C.z.F D M.M.V.z.V.V.X.C.C.C.C.C.C.C.C.",
"C.C.C.C.C.C.C.-.G ;.4.} | g.u.;.C.b.f.M.b.s.C.C.C.C.C.C.C.C.",
"C.C.C.C.C.C.C.k q b d.V.n.V.V.B u b.V.x.V.N.d.B.M.C.C.C.C.C.",
"C.C.C.C.C.C.t 8 A G F B.V.V.V.n.f.B.M.N.V.2.n.V.c.C.C.C.C.C.",
"C.C.C.C.C.z _ y.b.V.t.N.V.V.V.j.b.i.B.B.n.M.N.V.` C.C.C.C.C.",
"C.C.C.g.b.z.M.V.V.b.g.B.V.V.B.#.s.b.V.n.^ b.V.q.: C.C.C.C.C.",
"C.C.;.V.M.a.g.n.n.g.B.V.N.V.h.C.C.N.V.V.V.B.V.V.V.@.C.C.C.C.",
"C.C.C.C.N t 5 3.V.V.n.X.j.W C.C.C.x.V.V.n.t.p.V.V.] % C.C.C.",
"C.C.C.C.C.C.C._ n.B.m.z.V.B.%.R P :.j.V.k...p.V.V.5.$ C.C.C.",
"C.C.C.C.C.C.C.u M C.) b.V.B.V.V.<.+.h #.V.x.3.1.Z $ C.C.C.C.",
"C.C.C.C.C.C.$.5.7 C.*.9.x.V.B.N.V._ M.7.k.V.O.C.C.C.C.C.C.C.",
"C.C.C.C.C.V V.M.T Q M.x.M.V.o.i.V.b.V.B.r g.b.C.C.C.C.C.C.C.",
"C.C.C.C.C.S x.P 2 n.<.M.V.V.C.' V.N.H 1.C.J ~ C.C.e + C.C.C.",
"C.C.C.C.5 y C.C.! F i g.V.%.C.J b.B.;.C.C.C.3 - C.C.C.C.C.C.",
"C.C.C.C.C.C.C.C.> d  .f.V.[ C.v.V.B.V.1.C.C.T U C.C.C.C.C.C.",
"C.C.C.C.C.C.C.C.c :.L M.3.w O N.V.V.V.V.m.d.E e.x C.C.C.C.C.",
"C.C.C.C.C.C.C.C.l Z q.>.= C.0 B.V.5.{ z./ V.w.a g C.C.C.C.C.",
"C.C.C.C.C.C.C.C.C.,.r.l C.C.f C =.C.C.C.C.C.C.C.C.C.C.C.C.C.",
"C.C.C.C.C.C.C.C.C.9 X C.C.< < C.C.C.C.C.C.C.C.C.C.C.C.C.C.C.",
"C.C.C.C.C.C.C.C.C.C.C.C.C.C.C.C.C.C.C.C.C.C.C.C.C.C.C.C.C.C.",
"C.C.C.C.C.C.C.C.C.C.C.C.C.C.C.C.C.C.C.C.C.C.C.C.C.C.C.C.C.C."
};
