/* XPM */
static char *result[] = {
/* columns rows colors chars-per-pixel */
"40 40 195 2 ",
"   c #2C41D8",
".  c #3C59DE",
"X  c #0052E1",
"o  c #1E5CE5",
"O  c #0063EB",
"+  c #1C6EEF",
"@  c #2863E2",
"#  c #3967E3",
"$  c #367CF4",
"%  c #4159DE",
"&  c #5C6BDF",
"*  c #5965DE",
"=  c #656BDD",
"-  c #6A71DE",
";  c #4D62E2",
":  c #4E6CE2",
">  c #5369E1",
",  c #5C6EE0",
"<  c #4873E8",
"1  c #5C71E4",
"2  c #5971EE",
"3  c #516FF2",
"4  c #437AF3",
"5  c #5D71F0",
"6  c #6272E1",
"7  c #637CE5",
"8  c #6B7AE2",
"9  c #727EE1",
"0  c #B966B0",
"q  c #C772BF",
"w  c #D67BBB",
"e  c #D574B4",
"r  c #8569D6",
"t  c #8E77D8",
"y  c #9875D2",
"u  c #A96DCB",
"i  c #AF7BCE",
"p  c #B072D0",
"a  c #927EF4",
"s  c #CD77C0",
"d  c #3285F5",
"f  c #07BCE5",
"g  c #4F85EE",
"h  c #5780ED",
"j  c #5E84EE",
"k  c #5588ED",
"l  c #4383F4",
"z  c #5584F3",
"x  c #5C84F1",
"c  c #598BF4",
"v  c #5A89FF",
"b  c #4F94FE",
"n  c #5299FF",
"m  c #6B82EB",
"M  c #7A86E3",
"N  c #7C90E8",
"B  c #618CF4",
"V  c #6889FF",
"C  c #7A85F6",
"Z  c #6593F3",
"A  c #6F93F3",
"S  c #6A97FF",
"D  c #6E9AFC",
"F  c #7695F1",
"G  c #789FF5",
"H  c #7499F9",
"J  c #51A7F8",
"K  c #59ADF6",
"L  c #7BA0F6",
"P  c #75A4FF",
"I  c #62B9F9",
"U  c #7DBEF3",
"Y  c #6BC0EA",
"T  c #9880D9",
"R  c #B890CF",
"E  c #A180D0",
"W  c #AA93D9",
"Q  c #8688E4",
"!  c #8392E7",
"~  c #8896E8",
"^  c #8D9CEA",
"/  c #9494E7",
"(  c #A49AEA",
")  c #B799E4",
"_  c #8DA0EF",
"`  c #95A4ED",
"'  c #9CA5ED",
"]  c #9FAEEE",
"[  c #85A9F5",
"{  c #85A3FC",
"}  c #8EA1FD",
"|  c #95AEF4",
" . c #99AAF6",
".. c #93AFFF",
"X. c #8BB6F2",
"o. c #89B5FC",
"O. c #9BB6F4",
"+. c #97B2F8",
"@. c #A8A8E8",
"#. c #B8A5E2",
"$. c #ADB8EB",
"%. c #B8BEEE",
"&. c #B5B0E9",
"*. c #BDA9F5",
"=. c #A4B6F5",
"-. c #ADBAF2",
";. c #A2B7FF",
":. c #A4BAFB",
">. c #B3BAF2",
",. c #B0BEF9",
"<. c #D689C2",
"1. c #C580DE",
"2. c #CA99D0",
"3. c #EC86CC",
"4. c #D7A0CD",
"5. c #D1A8CE",
"6. c #D8A4D4",
"7. c #DCB2D5",
"8. c #CAB5E5",
"9. c #D9BAE5",
"0. c #E4A6E0",
"q. c #85CEEB",
"w. c #92C8EE",
"e. c #87D2E9",
"r. c #92D1EE",
"t. c #9CD9ED",
"y. c #8AC5FD",
"u. c #9DCBF4",
"i. c #99C4FF",
"p. c #BDC4E8",
"a. c #A4D6ED",
"s. c #AFC0F1",
"d. c #ACCDF4",
"f. c #A6C7FC",
"g. c #B5C2F5",
"h. c #B9C3F4",
"j. c #B9C3F9",
"k. c #B5CAFD",
"l. c #BCCDFD",
"z. c #B7C8FA",
"x. c #A2D5FC",
"c. c #AED7FF",
"v. c #A3DBFF",
"b. c #B9DDF1",
"n. c #BDD5FF",
"m. c #B2DBFC",
"M. c #B2E5FE",
"N. c #BEE7F9",
"B. c #E1C0DD",
"V. c #F8D6DF",
"C. c #CFC0EA",
"Z. c #C2C3EE",
"A. c #D4CBED",
"S. c #DECFEA",
"D. c #C2CCF4",
"F. c #C1CDFA",
"G. c #C8CDFF",
"H. c #C9CFF5",
"J. c #DFC1F7",
"K. c #C3D4FC",
"L. c #C9D3F9",
"P. c #CDDAFD",
"I. c #C3DFF5",
"U. c #DDDFF7",
"Y. c #D3DCFC",
"T. c #D4D5F3",
"R. c #E5C9E2",
"E. c #FDC1E4",
"W. c #EADBED",
"Q. c #E3D5E6",
"!. c #E7D8F0",
"~. c #EAD9FB",
"^. c #C7E7F6",
"/. c #C2E3FE",
"(. c #CCE5FA",
"). c #D4E1FF",
"_. c #DBE4FD",
"`. c #D6ECFA",
"'. c #DDE8FF",
"]. c #DBEEF7",
"[. c #DEF3F7",
"{. c #DEF3FD",
"}. c #E1E5F9",
"|. c #E4ECFE",
" X c #EBEDFD",
".X c #F7EEF5",
"XX c #FBEBFE",
"oX c #F8E6F7",
"OX c #E3F5FE",
"+X c #ECF3FE",
"@X c #EEFAFB",
"#X c #F3F6FE",
"$X c #F5F9FE",
"%X c #FEFEFF",
"&X c None",
/* pixels */
"&X&X&X&X&X&X&X&X&X&X&X&X&X&X&X&X&X&X&X&X&X&X&X&X&X&X&X&X&X&X&X&X&X&X&X&X&X&X&X&X",
"&X&X&X&X&X&X&X&X&X&X&X&X&X&X&X&X&X&X&X&X&X&X&X&X&X&X&X&X&X&X&X&X&X&X&X&X&X&X&X&X",
"&X&X&X&X&X&X&X&X&X&X&X&X&X&X&X&X&X, 1 &X&X&X> &X&X&X&X&X&X&X&X&X&X&X&X&X&X&X&X&X",
"&X&X&X&X&X&X&X&X&X&X&X&X&X&X&X&X&X, 2 &X&X, C &X&X&X&X&X&X&X&X&X&X&X&X&X&X&X&X&X",
"&X&X&X&X&X&X&X&X&X&X&X&X&X&X&X&X&X9 Q &X&X& J.9.&X&X&X&X&X&X&X&X&X&X&X&X&X&X&X&X",
"&X&X&X&X&X&X&X&X&X&XB &X&X&X&X-.# &X#.&X&XW 9.&X&X&X&X&X&X&X&X&X&X&X&X&X&X&X&X&X",
"&X&X&X&X&X&X&X&X&X&Xm S z &X&X|.~.M : &X&X&X&X&X<.&X&X&X&X&X&X&X&X&X&X&X&X&X&X&X",
"&X&X&X&X&X&X8 ; &X&X&XD ..c &X X%X+X@.&X&X&X&X&XXX&X&X&X&X&X&X&X&X&X&X&X&X&X&X&X",
"&X&X&X&X&X&X~ ,.m &X&XF P.l.g._.+X_.%Xk b &X&X7.XX7 &X&X&X&X&X&X&X&X&X&X&X&X&X&X",
"&X&X&X&X&X&X> =.~ &X&XB =.' $X%X%X|.%X/.y.l.H.|.|.Y.&X&X&X&X&X. % &X&X&X&X&X&X&X",
"&X&X&X&X&X&Xi a X &X&X@ l.#X%X%X'.#X%X%X+X%X$X%X%X{.x.&XU @ H.|.-.&X&X&X&X&X&X&X",
"&X&X&X&X&X&Xe ~.n.k. X_.=.b.+X$X#X$X%X#X|.'.%X%X%X[.U f N.G.%X$X&X&X&X&X&X&X&X&X",
"&X&X&X&X&X&X&X) _.|.%X#X:.D I I. X#X%X#Xb.$X%XT.%XOXOXOX$X%X+X& &X&X&X&X&X&X&X&X",
"&X&X&X&X&X&X&X%.}.P.%X%X].o.J (.+X$X%X%X#X%X$XS.%X%X%X%X%XP.n &X= 1 &X&X&X&X&X&X",
"&X&X&X&X&X&XF n.'.j.l.%XL.g &Xt 9.%X%X$X%X%X%X%X%X%X%X%X%Xu.e.8 5 6 &X&X&X&X&X&X",
"&X&X&X&X&X&Xo z F.P.L F.k.$ n.5.B. X_.%X$X#X%X%X%X#X$X+XY.e.d./ 3 &X&X&X&X&X&X&X",
"&X1 % =.` > j.L.g.8._ O R.*.A.4.V.!.#.#XF.%X%X%X#X|.u.r.u.`.!.!.+X .c &X&X&X&X&X",
"&X&X= 6 } k._.%X|.Y.&X&X&X1.&X&X&Xq ' N >.+X%X%X%X%Xm.K +.P.z.%X$X%X&.&X&X&X&X&X",
"&X&X&X&X&XF x { k.&X&X&Xk.#X%X_.&X&X&X&X&X).%X$X$X Xk.l.%X%XU.P.+X.X) = &X&X&X&X",
"&X&X&X&X&X&X&X&X&X&X&X&XQ.%X%X%X X&X&X&X&X&XW.#X$Xg.Y.^ @. X].#X%X%X$X8 &X&X&X&X",
"&X&X&X&X&X&X&X&X&X&X&Xt.X.$X%X%X%XP.&X&X&X&X&Xa.{.%Xn.w.B.A.). X%X%X-.&X&X&X&X&X",
"&X&X&X&X&X&X&X&Xn ..i.r.`.%X%X%X$X:.&X&X&XXX%X%X[.%X%X@X+X%X%X).;.=.&X&X&X&X&X&X",
"&X&X&X&X&X&X&X&XK.).|.%X%X%X%X%X%X@X XW.R.%X%X%X%X%X%X%X+XP.Y.h.&X&X&X&X&X&X&X&X",
"&X&X&X&X&X&X&XP c.[.+X^.|.%X%X%X%X%X|.%X%X%X%X%X%X%X%X%X%X|.l &X&X&X&X&X&X&X&X&X",
"&X&X&X&X&X&X&X:.+X[.$X@X@X%X$X$X%X%X$X%X+X'.#X%X%X%X%X$X].[ j &X&X&X&X&X&X&X&X&X",
"&X&X&X&X&X&X@ ^ %X%X%XL.$.>.c '.%X%X%X%X}.O./.%X%X%X%X%X(.X.F.&X&X&X&X&X&X&X&X&X",
"&X&X&X&X&X&Xs  .&X&XG &X&X&XG +X%X%X%X%XE.e K.%X%X%X+X%X%Xj.+X%Xg.&X&X&X&X&X&X&X",
"&X&X&X&Xw 3.w &X&X&X  N - M P.F.%X%XS.&X0 &X&X_.%X%Xb.g.%X%X%X%Xn.< &X&X&X&X&X&X",
"&X&X&X&X&X&X&X&X&X&X` '.N z.|.n.%X&XL &X&Xf.d _.#X%X%Xx.OX%X8.K.j.4 m &X&X&X&X&X",
"&X&X&X&X&X&X&X&X&Xp.K.| l.%X%Xi &X&XP &X&Xv.x.+X%X$X$X[ &X8.2.6 8 &X&X&X&X&X&X&X",
"&X&X&X&X&X&X&X&X&XF v D.%X%XoX&XW Q c F 7 h.%X%X%X|.M.w.&Xu p &X&X&X&X&X&X&X&X&X",
"&X&X&X&X&X&X&X&X&X&Xl.%X%X%X6.R oX( Z k.1 U.%X$X%X%Xd.M.Z &Xy &X&X&X&X&X&X&X&X&X",
"&X&X&X&X&X&X&X&X&X&X_.%X%X$.@.%X|.&Xg.).* P.|.+X%X%X+.&X&X&X&X&X&X&X&X&X&X&X&X&X",
"&X&X&X&X&X&X&X&X&X> P.Y.&X&X7.Y.&X&XO.~.&XO.{ K.|.| j &X&X&X&X&X&X&X&X&X&X&X&X&X",
"&X&X&X&X&X&X&X&X&X&X&X&X&Xy u &X&X&X&X%X&X&XS D &X&X&X&X&X&X&X&X&X&X&X&X&X&X&X&X",
"&X&X&X&X&X&X&X&X&X&X&X&X&XV # &X&X&XT 0.&X&X&XB h &X&X&X&X&X&X&X&X&X&X&X&X&X&X&X",
"&X&X&X&X&X&X&X&X&X&X&X&X1 1 &X&X&X&X= r &X&X&X&X&X&X&X&X&X&X&X&X&X&X&X&X&X&X&X&X",
"&X&X&X&X&X&X&X&X&X&X&X&X&X&X&X&X&X&X&X< &X&X&X&X&X&X&X&X&X&X&X&X&X&X&X&X&X&X&X&X",
"&X&X&X&X&X&X&X&X&X&X&X&X&X&X&X&X&X&X&X&X&X&X&X&X&X&X&X&X&X&X&X&X&X&X&X&X&X&X&X&X",
"&X&X&X&X&X&X&X&X&X&X&X&X&X&X&X&X&X&X&X&X&X&X&X&X&X&X&X&X&X&X&X&X&X&X&X&X&X&X&X&X"
};
