/* XPM */
static char *result[] = {
/* columns rows colors chars-per-pixel */
"50 50 227 2 ",
"   c #2E54DE",
".  c #254BDC",
"X  c #377FDE",
"o  c #2553E0",
"O  c #2D52EB",
"+  c #3C76ED",
"@  c #2176F2",
"#  c #3878F2",
"$  c #4A5DDE",
"%  c #675BD7",
"&  c #4D64DF",
"*  c #5265DE",
"=  c #5769DF",
"-  c #5D6EDF",
";  c #6070DF",
":  c #7D72DE",
">  c #7268DA",
",  c #4364E0",
"<  c #4D64E1",
"1  c #466AE7",
"2  c #5C6EE0",
"3  c #516DE7",
"4  c #4376EB",
"5  c #467AEF",
"6  c #5E71E3",
"7  c #5A7CEC",
"8  c #5276E7",
"9  c #4562F1",
"0  c #566CF1",
"q  c #566AF8",
"w  c #467DFA",
"e  c #5A74F8",
"r  c #606EE0",
"t  c #7066EB",
"y  c #6273E1",
"u  c #677BE5",
"i  c #6174EB",
"p  c #6977E0",
"a  c #6377F2",
"s  c #6579F6",
"d  c #697EFF",
"f  c #7C7DF6",
"g  c #B25EB4",
"h  c #CC51B0",
"j  c #D967B1",
"k  c #CF76BD",
"l  c #D772B6",
"z  c #D679B9",
"x  c #802FC4",
"c  c #9158CD",
"v  c #8679DC",
"b  c #9C67CD",
"n  c #AA73C9",
"m  c #B176CF",
"M  c #A87BD7",
"N  c #B174D2",
"B  c #957BE3",
"V  c #C27DD1",
"C  c #C46EC8",
"Z  c #E87BC5",
"A  c #118FFD",
"S  c #0090F9",
"D  c #3A9BFC",
"F  c #3D82F7",
"G  c #3DA1E2",
"H  c #29A2F1",
"J  c #4D80ED",
"K  c #5D81ED",
"L  c #5581E4",
"P  c #5390E1",
"I  c #5583F2",
"U  c #5984F2",
"Y  c #5388F4",
"T  c #5C8CF3",
"R  c #5587FC",
"E  c #4497FF",
"W  c #5D9CFF",
"Q  c #5B91FB",
"!  c #4C83F3",
"~  c #6384EE",
"^  c #6789ED",
"/  c #7C8CE6",
"(  c #7385E7",
")  c #7997E9",
"_  c #638AF3",
"`  c #6C82FF",
"'  c #638DFB",
"]  c #6889F3",
"[  c #708AFF",
"{  c #6295FD",
"}  c #6992FF",
"|  c #6D9BFE",
" . c #6897F8",
".. c #7998F4",
"X. c #59A8FA",
"o. c #4DBFF0",
"O. c #40A5F6",
"+. c #61BEEE",
"@. c #72A3FF",
"#. c #7DA5FF",
"$. c #7AABFF",
"%. c #74ABFB",
"&. c #6EB2FF",
"*. c #77B4FB",
"=. c #00C3DD",
"-. c #4CC5F1",
";. c #6BC9E8",
":. c #73CEEC",
">. c #68CCF1",
",. c #BC8BCF",
"<. c #AC80D6",
"1. c #B48BD8",
"2. c #B3B3DA",
"3. c #998CE7",
"4. c #8293EB",
"5. c #8895EA",
"6. c #809DF4",
"7. c #8A99FA",
"8. c #A595E0",
"9. c #A59BE3",
"0. c #8FA5ED",
"q. c #91A2EB",
"w. c #99A5EC",
"e. c #9FA8EC",
"r. c #85AAFC",
"t. c #86A7FB",
"y. c #95ABF3",
"u. c #9AA8F9",
"i. c #88B5FF",
"p. c #99B7FF",
"a. c #A4ADEC",
"s. c #A9A5E1",
"d. c #AEB2EC",
"f. c #A4B1ED",
"g. c #B7B8ED",
"h. c #A4B5F4",
"j. c #A4BEF5",
"k. c #A5BCFA",
"l. c #AAB8F6",
"z. c #B4BBF1",
"x. c #BBA8EC",
"c. c #CD89CA",
"v. c #D789C2",
"b. c #D596C7",
"n. c #D087DC",
"m. c #CC9BD5",
"M. c #DC92D9",
"N. c #E782C5",
"B. c #F38DCE",
"V. c #CEA7D8",
"C. c #D6A4D3",
"Z. c #DBB7DC",
"A. c #EAB0D0",
"S. c #C189F6",
"D. c #CDADE4",
"F. c #C5BAEB",
"G. c #D5B9E3",
"H. c #CDBAF2",
"J. c #E1B4E8",
"K. c #85CCEC",
"L. c #8CCDED",
"P. c #9CC3ED",
"I. c #8BD6E9",
"U. c #9FD8EC",
"Y. c #86C7FB",
"T. c #99C4F8",
"R. c #9BD4FD",
"E. c #ACDEEF",
"W. c #ADC4FD",
"Q. c #A8C9FD",
"!. c #B5C3F4",
"~. c #B8C4F2",
"^. c #B4C5FC",
"/. c #B6CBFD",
"(. c #BBCDFD",
"). c #BBC6F9",
"_. c #ACD3F3",
"`. c #ADD6FE",
"'. c #BCD2FE",
"]. c #B9D0F7",
"[. c #BAE3F6",
"{. c #ACE2F1",
"}. c #F8D2DE",
"|. c #F0C7DA",
" X c #CBC6EC",
".X c #C4CBF5",
"XX c #C2C4FB",
"oX c #CCD4F5",
"OX c #C2DEF6",
"+X c #C3D4FE",
"@X c #C9D6FC",
"#X c #C6DBFE",
"$X c #CBDBFD",
"%X c #D3D5F5",
"&X c #D5D9F5",
"*X c #DBDCF5",
"=X c #D1D5FD",
"-X c #D4DEFD",
";X c #DCD6F8",
":X c #D1CEE6",
">X c #E5DBF2",
",X c #F6D6EA",
"<X c #CCE1FA",
"1X c #C8E7F6",
"2X c #D2E7F7",
"3X c #D3E3FE",
"4X c #DBE4FD",
"5X c #DCEBFE",
"6X c #D8ECF7",
"7X c #E4E3F6",
"8X c #EDE4F3",
"9X c #E1E6FB",
"0X c #E4ECFE",
"qX c #E9EDFC",
"wX c #F5EBF4",
"eX c #FBEAF0",
"rX c #F6E6F7",
"tX c #E3F4FD",
"yX c #ECF2FE",
"uX c #E2F3F7",
"iX c #FBF2F7",
"pX c #F2F5FE",
"aX c #FCF5FC",
"sX c #F5FAFF",
"dX c #FEFEFF",
"fX c #FAF5F5",
"gX c None",
/* pixels */
"gXgXgXgXgXgXgXgXgXgXgXgXgXgXgXgXgXgXgXgXgXgXgXgXgXgXgXgXgXgXgXgXgXgXgXgXgXgXgXgXgXgXgXgXgXgXgXgXgXgX",
"gXgXgXgXgXgXgXgXgXgXgXgXgXgXgXgXgXgXgXgXgXgXgXgXgXgXgXgXgXgXgXgXgXgXgXgXgXgXgXgXgXgXgXgXgXgXgXgXgXgX",
"gXgXgXgXgXgXgXgXgXgXgXgXgXgXgXgXgXgXgXgXgXgXgXgXgXgXgXs gXgXgXgXgXgXgXgXgXgXgXgXgXgXgXgXgXgXgXgXgXgX",
"gXgXgXgXgXgXgXgXgXgXgXgXgXgXgXgXgXgXgXgXgXgXgXgXgXgX- s 2 gXgXgXgXgXgXgXgXgXgXgXgXgXgXgXgXgXgXgXgXgX",
"gXgXgXgXgXgXgXgXgXgXgXgXgXgXgXgXgXgXgXgXgXgX8 r gXgX2 d 2 gXgXgXgXgXgXgXgXgXgXgXgXgXgXgXgXgXgXgXgXgX",
"gXgXgXgXgXgXgXgXgXgXgXgXgXgXgXgXgXgXgXgXgXgX: e - gX- - gXgXgXgXgXgXgXgXgXgXgXgXgXgXgXgXgXgXgXgXgXgX",
"gXgXgXgXgXgXgXgXgXgXgXgXgXgXgXgXgXh.t.T b.v.9., i gXgXgXgXgXgXgXgXgXgXgXgXgXgXgXgXgXgXgXgXgXgXgXgXgX",
"gXgXgXgXgXgXgXgXgXgXgXgXgXgXgXgXgX.X5X3XdXA.x.1 p y gXgXgX_ _ gX7.( gXgXgXgXgXgXgXgXgXgXgXgXgXgXgXgX",
"gXgXgXgXgXgXgXgXgXgXgXgXgXgXgXgXgXl.sXyXdXZ.gX` * , oXn gXY _ 0XdXb.gXgXgXgXgXgXgXgXgXgXgXgXgXgXgXgX",
"gXgXgXgXgXgXgXgXgXgXgXgX7 < gXgXgX$ -X9X5Xw.gXgXu.v rXD.[ _ 8XdXdX:XgXgXgXgXgXgXgXgXgXgXgXgXgXgXgXgX",
"gXgXgXgXgXgXgXgXgXgXgXgXV f : gX6.*X6 6Xg.k.gXgX4XdXyXsX] k.dXdX3X4 T.'.gXgXz N.gXgXgXgXgXgXgXgXgXgX",
"gXgXgXgXgXgXgXgXgXgXgXgXl n k gX+XdX&X].J gX% S.t.qX9X..3XsXdX=Xv i.4X/.5 V.l gXgXgXgXgXgXgXgXgXgXgX",
"gXgXgXgXgXgXgXgXgXgXgXgXgXv.B.j gXdXdXdXuXgXV.}.W.+X(.t.dXdX-X8XG.tXyXdX+X0.gXgXgXgXgXgXgXgXgXgXgXgX",
"gXgXgXgXgXgXgXgXgXgX..4 y.l.G.j gXz.dXdXtX5XdXsX+Xt.qXpXdXdXdX$XW.dXdXdXqX/ = gXgXgXgXgXgXgXgXgXgXgX",
"gXgXgXgXgXgXgX2 u $X3X| 4 Y ' 3.gXgX&XK.=.2XaXpX]. .pXdXyXdX9XE Q.dXdXdXdXf.q gXgXgXgXgXgXgXgXgXgXgX",
"gXgXgXgXgXgXgXgX2 $ ~.tXy.5 ' Q gXgXgXW &.(.2XqX] 4XT.pXuXdX+XA /.dXdXsXyXp.  gXgXgXgXgXgXgXgXgXgXgX",
"gXgXgXgXgXgXgXgX1 u.!.4XyX.XU 8 _ ~ gXgX .#.o.L.G 1X[.sXyXpXI.G /.<X1XpX2Xe.b gXgXgXgXgXgXgXgXgXgXgX",
"gXgXgXgXgXgXgXgXgXY I 5 8 ..^.p.R { F.gXgXgXP -.I.0XdXdXdXqX{.X.D #.dXyX,.N m H.8.J _ gXgXgXgXgXgXgX",
"gXgXgXgXgXgXgXgXgXgXW.$X<XQ.j.l.K ^ +XXXg.gXc.-.>.5XsXpXdXdX<XS ^.sXdXeXN.C  Xj.# { gXgXgXgXgXgXgXgX",
"gXgXgXgXgXgXgXy e a.pX9Xw.+X.X~ r.].W.dXB pXfX4.`.tXqXsXdXsXr.6XyXdXdXD.gXgX] ^.^./.7 gXgXgXgXgXgXgX",
"gXgXgXgXgXgXgXgXu O a.aX0X$X4X4X-XpX!.sXdXdXdX$X-XdXdXsXdXyXdXdXdXdXqXgXgXgXyXqX<X!.gXgXgXgXgXgXgXgX",
"gXgXgXgXgXgXgXgXgXL +.qXdX4X3XpXdXdXdXdXdXdXdX-X'.dXqXpXdXdXdXdXdXtXW gXgXdXdXdXdXP.gXgXgXgXgXgXgXgX",
"gXgXgXgXgXgXgXgXO.R.yXqXdXdXdXdXuXdXdXdXdXpXdXgXgXp.rXyXdXdXdXdXdXg.gXgXU [.1XdXsXyX'.#Xi.gXgXgXgXgX",
"gXgXgXgXgXgXgXQ Y.E.sXdX<X$XpXdXdXdXdXdXdX*X|.gXgXgXgXZ.rXwXdXdXwX>XdX0XQ.'.dXdXdXsX5X-Xm.gXgXgXgXgX",
"gXgXgXgXgXgX{ ' _ *.:.[.>.E Y.W.gXqXdXdXdXpXc gXgXgXgXgXM.4XdXdXeXdXdXdXdXdXdXdXdXdXdX%XG...T gXgXgX",
"gXgXgXgXgXgXgXgXgX7 3.n <.! T._.L.1XyXdXdXdXsXgXgXgXgXx x.aXqXz.dXdXdXdXaXoX5XyXoX4X%XyX^.R | K gXgX",
"gXgXgXgXgXgXgXgXgXgXv.B.G.dX+X1XyXqXpXdXdXdXdXiXgXgXgXs.rX|.yX#X$XqX9XpX5XqX/ &XqXyXqXyXyX'.@ gXgXgX",
"gXgXgXgXgX- gXr gXgX@ y.dXdXqX<XpXpXdXdXdXdXdXaXV.iXdXsXdXeX*X| p.%.L.1XdX>XXXdXdXsX).3Xz.q.* ; gXgX",
"gXgXgX2 6 i ` 8 gX5.W.qXdXdXdXqXqXdXdXdXdXdXdX8X0XdXdXdXdXdXdX].5XyX2X5XyX%XyX4X@X2X3X( O 0 ; 6 gXgX",
"gXgXgX2 2 2 gXgXA.dXdXdXdX(.X. .(.dXpXdXdXdXdXdXdXdXdXdXdXaXdXyX6XdXdXdXdXsXsXyXq.. gXgXy gXgXgXgXgX",
"gXgXgXgXgXgXz Z dXdXrX,XqXgXgXgX..3XpXdXsXpXdXdXdXdXdXdXdXdXdXdXdXdXdXdXdXdXdX4X0 < y gXgXgXgXgXgXgX",
"gXgXgXgXgXgXgXz C.gXh gXgXgXgXgXgXr.*.U.3X$XdXdXdXdXdXdXdXdXdXpXdXdXdXdXdXdXaX%X3Xd.0 2 gXgXgXgXgXgX",
"gXgXgXgXgXgXgXgXgXgXgXgXgXgXgXgXgXgX:.{.T.T.6X`.yXdXdXdXdXdXdX6XdXdXpXdXdXdX>XgX4X).y 2 gXgXgXgXgXgX",
"gXgXgXgXgXgXgXgXgXgXgXgXgX:X2.gXgXgX*.;.D #._.j.dXdXdXdXdXdXdXOX1XdXyXdXdXdX3XgXgX9 a s 2 gXgXgXgXgX",
"gXgXgXgXgXgXgXgXgXgXgXgX).$X~.O 8 gXgX%.@.Y.T.q.aXdXdXdXdXdXsX4X) (._.{.tXdXgXgXgXgXgXgXgXgXgXgXgXgX",
"gXgXgXgXgXgXgXgXgXgXgX^ F 9Xh.t gXC.l 7X`.H k.aXeXdXdXdXdXsXfX>X* 0 gXgXgXm > gXgXgXgXgXgXgXgXgXgXgX",
"gXgXgXgXgXgXgXgXgXgXgX} ..9Xa.g gXb.n.1.$.a /.dXyX!.pXdXdXdX Xd.] 7.gXgXgXgX6 a d gXgXgXgXgXgXgXgXgX",
"gXgXgXgXgXgXgXgXgXgXgXR h.6.gXgXgXC 1.c. XyX9XdXuXj.qXeXfXdX4.u gX.X^.! ~ gX- a a 2 gXgXgXgXgXgXgXgX",
"gXgXgXgXgXgXgXgXgXgXgX@.! gXgXgXgXgXgXXXM yXdXqX4X-XdXfXdX5X;X9.gXgXh.5 } _ gX- 2 2 gXgXgXgXgXgXgXgX",
"gXgXgXgXgXgXgXgXgXgXgXK gXgXgXgXgXgXw.sX/.sXdX4X) *XdXdX*XsXdXdX4 gX7 | ' } gXgXgXgXgXgXgXgXgXgXgXgX",
"gXgXgXgXgXgXgXgXgXgXgXgXgXgXgXgXgX5.pXdX4XdXpXdXgX# yXdX$XdXdXsX4XgXgX~ T _ ' gXgXgXgXgXgXgXgXgXgXgX",
"gXgXgXgXgXgXgXgXgXgXgXgXgXgXgXgXgXdXpX4XqXdXdXdXgX+ -XyX#X4XdXdXdX5.gXgXgXgXgXgXgXgXgXgXgXgXgXgXgXgX",
"gXgXgXgXgXgXgXgXgXgXgXgXgXgXgXgX/ dXpX4.(.pXdXdXgXgXU #X3X4.qXdXdXqXgXgXgXgXgXgXgXgXgXgXgXgXgXgXgXgX",
"gXgXgXgXgXgXgXgXgXgXgXgXgXgXgXgX0 XXw.gXgXpXdXw.gXgXgX^ ..gXy ^.dXd.gXgXgXgXgXgXgXgXgXgXgXgXgXgXgXgX",
"gXgXgXgXgXgXgXgXgXgXgXgXgXgXgXgX`   gXgXgXl.=Xi gXgXgXgXgXgXgX. u.( gXgXgXgXgXgXgXgXgXgXgXgXgXgXgXgX",
"gXgXgXgXgXgXgXgXgXgXgXgXgXgXgXgX- gXgXgXgXgXe = gXgXgXgXgXgXgXgX& gXgXgXgXgXgXgXgXgXgXgXgXgXgXgXgXgX",
"gXgXgXgXgXgXgXgXgXgXgXgXgXgXgXgXgXgXgXgXgXgXy gXgXgXgXgXgXgXgXgXgXgXgXgXgXgXgXgXgXgXgXgXgXgXgXgXgXgX",
"gXgXgXgXgXgXgXgXgXgXgXgXgXgXgXgXgXgXgXgXgXgXgXgXgXgXgXgXgXgXgXgXgXgXgXgXgXgXgXgXgXgXgXgXgXgXgXgXgXgX",
"gXgXgXgXgXgXgXgXgXgXgXgXgXgXgXgXgXgXgXgXgXgXgXgXgXgXgXgXgXgXgXgXgXgXgXgXgXgXgXgXgXgXgXgXgXgXgXgXgXgX",
"gXgXgXgXgXgXgXgXgXgXgXgXgXgXgXgXgXgXgXgXgXgXgXgXgXgXgXgXgXgXgXgXgXgXgXgXgXgXgXgXgXgXgXgXgXgXgXgXgXgX"
};
