/* XPM */
static char *_70fd0549a3f427cdc794d165a830bbd1FDJoDUUbzEUI4Xo[] = {
/* columns rows colors chars-per-pixel */
"50 50 171 2 ",
"   c None",
".  c #254E9E",
"X  c #254FA1",
"o  c #284FA1",
"O  c #2552A3",
"+  c #2850A4",
"@  c #2356A9",
"#  c #2359AD",
"$  c #225EB4",
"%  c #205FB8",
"&  c #1F64BC",
"*  c #2360B6",
"=  c #2263BA",
"-  c #366EB7",
";  c #3870B6",
":  c #3471BC",
">  c #3972B8",
",  c #4578BD",
"<  c #1F6AC4",
"1  c #1E6FCE",
"2  c #1B75D6",
"3  c #1F78D6",
"4  c #1E7DDE",
"5  c #2067C1",
"6  c #216BC5",
"7  c #296EC2",
"8  c #226FCA",
"9  c #2372CC",
"0  c #2E79CA",
"q  c #347AC5",
"w  c #3C78C2",
"e  c #327ACC",
"r  c #2176D2",
"t  c #2279D5",
"y  c #2A7CD1",
"u  c #207EDE",
"i  c #1D7EE3",
"p  c #207EE0",
"a  c #1F80DF",
"s  c #2481DE",
"d  c #2985DE",
"f  c #2E89DE",
"g  c #3385D6",
"h  c #3B87D3",
"j  c #338CDE",
"k  c #3790DE",
"l  c #3B93DE",
"z  c #1E80E4",
"x  c #2282E3",
"c  c #2B87E1",
"v  c #2C8AE2",
"b  c #2185E8",
"n  c #328CE1",
"m  c #3A8EE2",
"M  c #3591E3",
"N  c #3C93E1",
"B  c #3F98E0",
"V  c #3E9BE9",
"C  c #4A8ECA",
"Z  c #408FD4",
"A  c #4B98D6",
"S  c #4197DE",
"D  c #449ADE",
"F  c #4A9EDD",
"G  c #4DA1DE",
"H  c #54A5DE",
"J  c #57A8DE",
"K  c #5CACDE",
"L  c #6AA7D4",
"P  c #60AEDE",
"I  c #73ADD5",
"U  c #72AFDA",
"Y  c #6FB0D1",
"T  c #65B2DD",
"R  c #6AB6DD",
"E  c #6EB9DE",
"W  c #79B0D6",
"Q  c #73B4DE",
"!  c #73BDDD",
"~  c #7ABEDC",
"^  c #4294E1",
"/  c #449CE2",
"(  c #4C9BE1",
")  c #419BE8",
"_  c #509EE2",
"`  c #4BA1E2",
"'  c #53A3E2",
"]  c #5CA6E2",
"[  c #56A9E2",
"{  c #5CABE3",
"}  c #5DA9EB",
"|  c #5FB3E5",
" . c #63ABE2",
".. c #69AFE3",
"X. c #64B4E3",
"o. c #6DB4E1",
"O. c #6CBAE3",
"+. c #67B7E8",
"@. c #72B4E3",
"#. c #74BAE1",
"$. c #7CBDE2",
"%. c #76C0DE",
"&. c #7BC3DD",
"*. c #76C2E4",
"=. c #7DC0E1",
"-. c #80C7DD",
";. c #84CADD",
":. c #8BCEDD",
">. c #8DD1DD",
",. c #94D5DE",
"<. c #98D3DF",
"1. c #96D8DC",
"2. c #9BDADD",
"3. c #A2DDDE",
"4. c #A5E2DD",
"5. c #ABE5DE",
"6. c #ADE9DD",
"7. c #B5EEDD",
"8. c #B4ECDD",
"9. c #BAEEDE",
"0. c #B7F0DD",
"q. c #B9F0DD",
"w. c #B8F1DF",
"e. c #BEF3DE",
"r. c #B8F0DC",
"t. c #86C3E3",
"y. c #87C6E2",
"u. c #81C1E5",
"i. c #83C2E3",
"p. c #8CC7E4",
"a. c #89C6E3",
"s. c #85CCE0",
"d. c #84CDE4",
"f. c #8DCAE2",
"g. c #94CCE5",
"h. c #93CDE3",
"j. c #8DD4E4",
"k. c #93D5E0",
"l. c #93D1E1",
"z. c #9BD4E2",
"x. c #95D8E1",
"c. c #95DBE7",
"v. c #96D9E4",
"b. c #93D8E5",
"n. c #9FD8E1",
"m. c #9DDDE0",
"M. c #9BD8E3",
"N. c #A1D6E5",
"B. c #A0D8E1",
"V. c #A2DBE1",
"C. c #9FE1E4",
"Z. c #A0E2E2",
"A. c #A1E4E2",
"S. c #A7E6E3",
"D. c #A9E0E0",
"F. c #AFE2E3",
"G. c #ABE2E0",
"H. c #ADE9EA",
"J. c #AAEAEA",
"K. c #B0E3E1",
"L. c #B5E9E1",
"P. c #BAEDE0",
"I. c #B9EAE1",
"U. c #B4F1E3",
"Y. c #B9F4E1",
"T. c #BCF7E3",
"R. c #BCF7E5",
"E. c #BDF5E6",
"W. c #BEF0E0",
"Q. c #BEFAE6",
"!. c #BBF5EC",
/* pixels */
"                                                      A.T.                                          ",
"                                                      E 6.                                          ",
"                                                      G ,.                                          ",
"                                                      / *.C.  w.                                    ",
"                                                    v N / X.4.0.                                    ",
"                                                    v V k F &.S.Q.                                  ",
"                      Q.                            z z l T K O.U.                                  ",
"                      Q.T.                          z c T ! l G 2.e.                                ",
"                      6.C.x.,.                      z l T F 4 M *.w.                                ",
"                      s.X.' [ `                   b z f G k 4 M +.;.*.Z.                            ",
"                      { ' c x x             0.    b x f k j 4 v ) k v O.                            ",
"                        / n x x x           U.    z v H l 4 x z z 4 x /                             ",
"                        ) [ l s i z         j.C.D 4 G &.G d l M     x b                             ",
"                      z v K T j p x b     f ` *.l d %.2.K K %.H 4 z z z                             ",
"                      b z / %.K j x z     b V | f F 1.2.&.2.6.&.n x v M         !.!.                ",
"                      b i / >.4.&.H B n a M ) n a G ;.%.G &.8.1.G M { X.        H.H.                ",
"                        i ^ ,.9.8.5.,.T F K R l D G G l s K 3.6.! T ,.+.E     v.*.O.                ",
"                        i / :.5.5.9.K.x.E E >.%.J k 4 N ( k &.7.5.n.n.O./     X.`                   ",
"                        i B a.t.,.P.g.( j k D H k 4 d o.u.j J 4.P.B.p.u.` s c v                     ",
"                        x / #.X.! 5.p.m 4 4 4 4 4 4 f ! z.( D 1.8.~ ( i.y.F v z                     ",
"                        n [ G v j ~ p.m 4 u 4 u u 4 l :.K. .f Q 2.T k @.N.*.M i                     ",
"                        M ` k 4 u { $.m 4 u u 4 4 d T 6.5.@.d F E l u ( $. .v                       ",
"                          B n s u k ' m 4 4 4 4 s G 1.7.8.f.^ f G j s F ( c i                       ",
"                          l F f u d S l s s 4 4 j &.9.8.8.l.( k F j f H K n c                       ",
"                          d D k f k l j s 4 4 4 j -.4.l.4.3.o.^ F F S T ,.@.m                       ",
"          !.              4 s d D G a 4 4 4 4 4 j -.-.G l.W.t.j u F P -.5.i.m                       ",
"          J.d.            u 4 f H D s 4 4 4 4 4 j &.%.^ a.I.u.n d D [ ~ h. .x                       ",
"          b.X.`           i s F H d 4 4 s d s 4 A ;.K j @.B.@.j S K H s.i.m i                       ",
"          { ` / v     s z z v G D 4 4 4 j D d a T :.j i j J o.( F T ~ l. .u x x                     ",
"            x c v v v x s z x f f s 4 4 j F d a E :.k 2 u l @.] F -.n.z._ p z x                     ",
"              b ` O.X.` D / A l l j s 4 s d f d E :.l 4 j [ H d F 2.G.@.c u x i     x               ",
"              v X.4.5.1.h.s.E l l H l s 4 k D D ! ! f 4 _ $.F 2 F l.p.^ u 4 4 a z z z               ",
"              c [ 1.0.L.g.@._ d s S F d 4 d D E ! l a s  .#.l 4 S y...s 4 4 d j c x i               ",
"                l %.2.2.X.d 4 4 4 u u s f d j J S 4 s D -. .4 4 f o.$.m 4 s ` #...^ p               ",
"                M ` K :.-.G f s s d s j H l G T k 4 j %.V.] 4 p u J $.^ 4 d R 5.z.} b               ",
"                  z d H -.-.T S l l j H ! F ! 3.T l K 2.p.^ 4 u f ' ' c 4 j ~ 8.n.}                 ",
"                  p u u k P &.H f f k =.:.K &.n.<.:.2.V. .u u 4 D $.( 4 u F 2.8.g.'                 ",
"                    9 u 4 u j k s u F h.g.&.>.#.h.8.V...n u u u J h. .u u H 3.3.L e                 ",
"                      8 u u f F ^ j H -.f.:.>.H ' h.o.n u 4 u f ~ z.' u j T <.W ,                   ",
"                      % 6 t k ! $.( F @.Q ~ R f f _ l j f 4 4 j -.f.^ u ( $.U w @                   ",
"                        @ 6 4 D i. .l F e : 0 4 s d f l j 4 4 F j.=.d t g N e #                     ",
"                        + * 2 g ! T f 9 # O < 4 4 4 d A l 4 s T 5.t.h & 6 2 = O                     ",
"                        . X # 7 h l u = . X & a 4 u 9 - e 3 d T 3.I > O = 6 # O                     ",
"                          . . O * 1 6 O . . & a 4 r $ . # 9 j T Y - X . # O . X                     ",
"                          o . . . O # O . . # 6 9 * O . . # q C - . . . . . . .                     ",
"                          . X o . . . O . . O O O O X . . O O @ X . . . . O X                       ",
"                                . + + + + + + + . .     + + o o o + o o + + + O                     ",
"                                                                                                    ",
"                                                                                                    ",
"                                                                                                    "
};
